<svg xmlns="http://www.w3.org/2000/svg" xmlns:xlink="http://www.w3.org/1999/xlink" width="208.356" height="52.943" viewBox="0 0 208.356 52.943">
  <defs>
    <clipPath id="clip-path">
      <rect id="Rectangle_5" data-name="Rectangle 5" width="208.356" height="52.943" fill="none"/>
    </clipPath>
  </defs>
  <g id="Group_10" data-name="Group 10" transform="translate(0 0)">
    <g id="Group_9" data-name="Group 9" transform="translate(0 0)" clip-path="url(#clip-path)">
      <path id="Path_61" data-name="Path 61" d="M23.821,4.145l-.105.628V4.8l-2.057,7.854-.7,2.67L20.3,17.84l-.976,3.8a.84.84,0,0,1-.7.69h-.175l-.14.031a5.2,5.2,0,0,1-1.046.126c-.7,0-.871-.282-1.08-.911l-.105-.344-.941-2.7-.244-.659-.488-1.445-.837-2.419-.419-1.069-.419-1.162-.559-1.6a.27.27,0,0,0-.244-.126.22.22,0,0,0-.209.126l-.175.44-.383,1.132-.244.847-.559,1.6-.244.722-.768,2.23L8.3,20.291l-.559,1.476-.173.44a.449.449,0,0,1-.384.251H5.479a.832.832,0,0,1-.907-.723l-.279-.91-.315-1.194L2.725,14.919,1.957,12,1.19,9.013.7,7.1.109,4.8,0,4.176a.387.387,0,0,1,.349-.407,8.63,8.63,0,0,1,2.022,0,.369.369,0,0,1,.349.25l.419,1.476,1.36,4.65,1.29,4.4.592,1.886.244-.5.105-.282,2.51-7.288c.14-.376.209-.723.313-1.1l.245-.91.173-.629a13.057,13.057,0,0,1,.488-1.476c.245-.534.733-.5,1.186-.471a1.9,1.9,0,0,0,.419.031c.419-.031.977-.094,1.151.5a29.75,29.75,0,0,1,1.116,3.392,12.881,12.881,0,0,0,.942,2.67,3.292,3.292,0,0,1,.244.6,41.836,41.836,0,0,0,1.36,4.021l.035.031.069.409.105.378a1.837,1.837,0,0,0,.209.565c.941-2.482,1.673-5.089,2.405-7.6.419-1.539.872-3.142,1.4-4.713a.413.413,0,0,1,.313-.25,6.391,6.391,0,0,1,2.057-.031.386.386,0,0,1,.349.376" transform="translate(0 0.883)" fill="#535838"/>
      <path id="Path_62" data-name="Path 62" d="M27.408,8.522c-.105,1.131-.105,2.294-.279,3.393-.036.376.1.785.1,1.162,0,.44-.1.881-.1,1.32.069,2.2.209,4.43.209,6.628.1.66.313,1.037-.559,1.288-.384.157-.8-.063-1.151.062-1.988.817-1.778-1.068-1.744-2.23v-.062c.069-2.607.069-5.308.069-7.948a34.266,34.266,0,0,1,.175-3.769c0-1.194,0-2.357.1-3.551a1.211,1.211,0,0,1,.908-1.131c.417-.125.871.126,1.289.157.733.031,1.5.094,1.4.973-.1,1.225-.279,2.482-.419,3.707" transform="translate(5.69 0.871)" fill="#535838"/>
      <path id="Path_63" data-name="Path 63" d="M48.363,19.854a3.965,3.965,0,0,0-.209.754c-.209.879-.419,1.76-1.5,1.822s-2.476.1-4.429.1l-2.616-.032H35.215a5.239,5.239,0,0,1-1.882-.315c-.175-.125-.175-.376-.175-.6.035-.911,0-1.853-.035-2.733a21.261,21.261,0,0,1,0-2.575V16.21l.035-1.131.105-2.985-.071-2.45a26.91,26.91,0,0,1,.035-3.739,2.826,2.826,0,0,0,.036-.534,1.7,1.7,0,0,1,.313-1.131,1.453,1.453,0,0,1,.732-.157h.244a14.014,14.014,0,0,1,1.988.188c.733.22.664.942.629,1.633a2.833,2.833,0,0,0-.036.535c-.175,3.392-.348,7.381-.313,11.277V18a1.3,1.3,0,0,0,.139.722v.032a1.107,1.107,0,0,0,.837.25h.559c1.778,0,4.986.157,7.114.251.348.032.663.063.976.063l.419-.031a4.81,4.81,0,0,1,.7-.032.937.937,0,0,1,.7.188.4.4,0,0,1,.105.409" transform="translate(7.888 0.974)" fill="#535838"/>
      <path id="Path_64" data-name="Path 64" d="M49.747,3.945a.7.7,0,0,1,.453-.157l9.067-.031a6.468,6.468,0,0,1,2.2.25A5.2,5.2,0,0,1,64.15,6.425a12.485,12.485,0,0,1,1.569,5.969c.035,1.068-.105,2.135-.175,3.2a11.915,11.915,0,0,1-.175,1.572,8.73,8.73,0,0,1-1.465,3.2,5.67,5.67,0,0,1-4.429,2.073c-1.638.125-3.312-.062-4.986-.031H50.549c-.837,0-.941-.126-.976-.85V13.022L49.5,6.772l.071-2.388a.554.554,0,0,1,.173-.44m3.174,6.031c0,1.319.105,2.67.14,4.021l-.071,3.582v.816a.837.837,0,0,0,.977.848l5.055-.126A2.6,2.6,0,0,0,61.534,17.3a10.771,10.771,0,0,0,.627-4.43A25.214,25.214,0,0,0,61.5,9.253a6,6,0,0,0-.383-1.35A1.176,1.176,0,0,0,60,7.118l-6.591-.032a1.349,1.349,0,0,0-.383.126,24.54,24.54,0,0,0-.105,2.764" transform="translate(11.803 0.894)" fill="#535838"/>
      <path id="Path_65" data-name="Path 65" d="M91.428,21.065c.175.41.453,1.007.105,1.351a3.41,3.41,0,0,1-2.441.188,1.29,1.29,0,0,1-.944-.847l-2.58-5.624c-.279-.6-.348-1.037-1.186-.942l-3.206.126c-.454-.032-.872.125-.872.6-.035.722-.244,1.476-.279,2.23a6.384,6.384,0,0,1-.071,1.822,3.3,3.3,0,0,0-.384,1.6,1.03,1.03,0,0,1-.071.472c-.209.315-.8.219-1.149.251-.42,0-1.012.063-1.292-.188-.384-.5-.279-1.32-.349-1.886a37.593,37.593,0,0,0,0-3.989c-.172-2.7.036-5.371-.069-8.073V8.124c.035-1.288-.312-2.639.035-3.864.175-.5.769-.471,1.292-.535,2.093-.062,4.15-.188,6.207-.376a11.466,11.466,0,0,1,4.918,1.038,3.967,3.967,0,0,1,2.092,2.386c.209.409.593.723.663,1.163a5.979,5.979,0,0,1-1.29,5.121,10.319,10.319,0,0,1-1.638,1.256.508.508,0,0,0-.28.785c1.011,1.979,1.918,3.99,2.79,5.968m-2.3-12.156a3.117,3.117,0,0,0-2.233-2.2,12.247,12.247,0,0,0-3.173-.534c-.629.032-1.255.188-1.884.157-.383,0-.871-.188-1.151-.031a.755.755,0,0,0-.279.471,14.868,14.868,0,0,0-.1,3.048v.062a8.832,8.832,0,0,0,.243,2.325c.244.284.7.284,1.082.315a14.642,14.642,0,0,0,2.614-.062,10.062,10.062,0,0,0,2.58-.472c1.29-.5,2.512-1.728,2.3-3.079" transform="translate(18.245 0.798)" fill="#535838"/>
      <path id="Path_66" data-name="Path 66" d="M97.36,4.477l-.244,17.686a.2.2,0,0,1-.209.22,12.986,12.986,0,0,1-2.476.031.559.559,0,0,1-.384-.125.422.422,0,0,1-.105-.347l-.035-3.392.035-2.858-.035-7.068.035-4.148c0-.722.105-.784.872-.691.489.032,1.012.032,1.534.032l.733.063a.215.215,0,0,1,.208.156Z" transform="translate(22.39 0.895)" fill="#535838"/>
      <path id="Path_67" data-name="Path 67" d="M117.524,4.663c-.105.409-.105.942-.349,1.225-.209.22-.592.22-.872.346a2.341,2.341,0,0,1-1.429.472c-1.116.032-2.232.125-3.347.188-.837.063-.523,1.006-.593,1.508.14,2.388-.348,4.806-.035,7.162a10.237,10.237,0,0,0,.035,2.733c-.035,1.194.349,2.388.105,3.518-.244.817-1.884.6-2.581.5-.628-.126-.419-.786-.523-1.226l-.071-.878c-.035-.347-.279-.692-.313-1.1-.035-1.822-.069-3.674,0-5.528.14-1.885-.069-3.77.035-5.653.14-1.226-.453-1.163-1.569-1.194H104.8c-1.011-.032-2.476.628-3.138-.315a2.68,2.68,0,0,1-.175-1.383c.071-.438.14-.785.593-.942a33.072,33.072,0,0,1,5.3-.282h.071c2.72.063,5.4-.315,8.124-.125.907.032,2.232-.315,1.953.973" transform="translate(24.195 0.867)" fill="#535838"/>
      <path id="Path_68" data-name="Path 68" d="M134.281,10.306c-.14,1.006-.069,2.01-.14,3.016-.313,2.292.071,6.063-1.638,7.822a6.744,6.744,0,0,1-4.323,1.633,29.292,29.292,0,0,1-4.394-.157c-4.743-.723-4.778-4.837-4.674-8.419v-.062c0-3.048-.1-6.157.14-9.205.035-.6.175-.879.872-.879.872.032,2.685-.534,2.79.66-.14,3.958-.628,7.916-.559,11.874a3.912,3.912,0,0,0,.663,2.388c1.186,1.6,3.8.566,5.51.409,3.034-1.069,2.756-4.461,2.581-6.879-.035-1.541,0-3.08-.105-4.618-.035-.85-.1-1.7-.069-2.545a1.325,1.325,0,0,1,.279-.942,2.923,2.923,0,0,1,2.128-.346.9.9,0,0,1,.767.879,19.839,19.839,0,0,1,.175,5.372" transform="translate(28.394 0.942)" fill="#535838"/>
      <path id="Path_69" data-name="Path 69" d="M154.668,23.027a.618.618,0,0,1-.453.219l-1.988.126a.95.95,0,0,1-.523-.22,1.085,1.085,0,0,1-.315-.376l-1.464-3.393-.209-.533a1.129,1.129,0,0,0-1.29-.786l-2.581.157a10.463,10.463,0,0,1-1.429-.032l-2.929-.093a.692.692,0,0,0-.733.407L140.2,19.76l-1.256,2.8c-.315.754-.488.848-1.43.754l-1.011-.063c-.976-.031-1.15-.219-.837-1.037a4.835,4.835,0,0,1,.732-1.6,10.219,10.219,0,0,0,.872-1.728c.977-2.074,2.022-4.148,2.93-6.252.488-1.226,1.116-2.355,1.673-3.549L143.2,6.126a4.277,4.277,0,0,1,.28-.566,1.569,1.569,0,0,1,1.534-.722h.871a.77.77,0,0,1,.733.409l1.638,3.361.941,2.011.419.848,2.2,4.711,1.116,2.482c.419.785.872,1.57,1.256,2.355a13.939,13.939,0,0,1,.557,1.572.408.408,0,0,1-.069.44M140.476,1.917l.035-.188c.313-1.445.593-2.167,2.721-1.445a1.278,1.278,0,0,1,.907.66,3.506,3.506,0,0,1,.348,1c0,.661-.976,1.32-1.917,1.289a10.052,10.052,0,0,1-1.186-.22,1.316,1.316,0,0,1-.907-1.1m7.183,12.659c.105,0,.036-.157-.035-.25l-1.429-3.236a7.115,7.115,0,0,0-.663-1.225.451.451,0,0,0-.837.031l-.1.251L143.4,12.693l-.8,1.853c-.035.031,0,.1.069.1a15.629,15.629,0,0,0,4.986-.064M146.195,1.917V1.729c.348-1.445.593-2.167,2.754-1.445a1.214,1.214,0,0,1,.872.66,2.189,2.189,0,0,1,.349,1c.035.661-.942,1.32-1.918,1.289a11.585,11.585,0,0,1-1.185-.22,1.334,1.334,0,0,1-.872-1.1" transform="translate(32.313 0.001)" fill="#535838"/>
      <path id="Path_70" data-name="Path 70" d="M171.158,22.416l-.977.031-13.635.031-.523-.031a.51.51,0,0,1-.419-.126.549.549,0,0,1-.175-.376V18.457l.035-2.733-.035-7.1.035-4.209c0-.6.14-.691.768-.659l1.6.093.837.032a.186.186,0,0,1,.175.125c.14,2.577-.209,5.058-.14,7.541.069,2.45-.1,4.9.069,7.444,0,.063.071.125.175.125l1.013.063,10.286.094c.907.031,1.045.157,1.045.975v2.01a.149.149,0,0,1-.139.157" transform="translate(37.06 0.895)" fill="#535838"/>
      <path id="Path_71" data-name="Path 71" d="M15.094,39.179a8.8,8.8,0,0,0,1.214-.027.888.888,0,0,1,.888.4.11.11,0,0,1,.028.134l-.207,1.227a5.517,5.517,0,0,1-2.012,3.2,7.518,7.518,0,0,1-3.344,1.52,8.037,8.037,0,0,1-2.99.026,1.05,1.05,0,0,0-.414-.026A4.963,4.963,0,0,1,5,44.351a7.181,7.181,0,0,1-2.4-4.185,12.421,12.421,0,0,1,.059-5.12,6.447,6.447,0,0,1,2.99-4.559A4.536,4.536,0,0,1,8.2,29.662a9.208,9.208,0,0,0,1.48-.134,8.324,8.324,0,0,1,4.468,1.039,5.616,5.616,0,0,1,1.953,1.76,4.462,4.462,0,0,1,.977,3.12.2.2,0,0,1-.177.187,5.522,5.522,0,0,1-1.746.213.659.659,0,0,1-.681-.507,5.408,5.408,0,0,0-.3-.987,4.032,4.032,0,0,0-2.486-1.972,5.207,5.207,0,0,0-2.93-.374,3.956,3.956,0,0,0-3.019,2.32,5.774,5.774,0,0,0-.533,2.613c.059.933.059,1.866.149,2.773A4,4,0,0,0,8.05,43.1a3.7,3.7,0,0,0,2.012.241,7.638,7.638,0,0,0,3.019-1.147,3.811,3.811,0,0,0,1.3-1.787l.474-1.092a.306.306,0,0,1,.237-.134" transform="translate(0.564 7.038)" fill="#535838"/>
      <path id="Path_72" data-name="Path 72" d="M35.059,38.853a8.441,8.441,0,0,1-1.983,4.318A7.017,7.017,0,0,1,27.1,45.81h-.059a6.09,6.09,0,0,1-3.788-.959A5.311,5.311,0,0,1,21,43.225a5.886,5.886,0,0,1-1.42-2.373,10.871,10.871,0,0,1,.03-5.839,10.277,10.277,0,0,1,1.806-2.853,10.522,10.522,0,0,1,2.93-2.265c.71-.054,1.361-.268,2.071-.374a16.708,16.708,0,0,1,3.818.133c.858.054,1.391.774,2.161,1.095a3.527,3.527,0,0,1,1.42,2,5.859,5.859,0,0,1,.62,1.733,5.95,5.95,0,0,1,.622,4.373M31.39,35.067A2.171,2.171,0,0,0,30.8,34c-.177-.24-.266-.507-.533-.668a1.306,1.306,0,0,1-.445-.346,2.632,2.632,0,0,0-1.331-.72,4.166,4.166,0,0,0-4.735,1.518,6.825,6.825,0,0,0-1.243,5.44,2.52,2.52,0,0,0,.266,1.146c.916,1.466,1.806,2.933,3.906,2.907h.059c2.042.053,4.174-1.147,4.676-3.04a2.092,2.092,0,0,0,.237-.533c.059-.321-.089-.64-.03-.934a6.9,6.9,0,0,1,.178-.826,11.707,11.707,0,0,0-.415-2.879" transform="translate(4.577 7.018)" fill="#535838"/>
      <path id="Path_73" data-name="Path 73" d="M41.044,33.5c-.03.773-.059,1.492-.03,2.266.03.294.266.4.562.4,1.095,0,2.19.053,3.256-.027h.059c.533-.052,1.095,0,1.657-.026.473.026.977-.026,1.48.026a.486.486,0,0,1,.473.268,5.4,5.4,0,0,1,.149,1.839.786.786,0,0,1-.769.826c-2.221.134-4.5-.079-6.689.108-.237.079-.3.32-.3.56a24.6,24.6,0,0,0,.119,2.505c.03.934,0,1.868,0,2.8,0,.241-.058.508-.354.587a11.376,11.376,0,0,1-1.925.081c-.769.027-1.154-.081-1.095-.853-.059-1.626-.03-3.252,0-4.905a56.4,56.4,0,0,1,.118-7.732c.089-.613-.118-1.307.266-1.839a1.311,1.311,0,0,1,1.007-.347c.711,0,1.42.026,2.1-.027,2.219-.187,4.41-.134,6.629-.134.414.027.977-.079,1.273.24a.824.824,0,0,1,.058.534c-.119.613.355,1.653-.533,1.918a21.1,21.1,0,0,1-3.2.081c-1.095,0-2.16.161-3.256.187-.62,0-1.095,0-1.065.666" transform="translate(8.955 7.121)" fill="#535838"/>
      <path id="Path_74" data-name="Path 74" d="M64.937,29.89c0,.666.028,1.279,0,1.892-.03.481-.18.561-.712.614h-.176l-8.613.079-.887.027a.151.151,0,0,0-.149.133v1.494L54.283,35.6a.132.132,0,0,0,.146.134l2.133.052h3.106a2.584,2.584,0,0,1,.653.053l.03.027c.207.08.443.24.443.4a4.459,4.459,0,0,1-.177,2.16.288.288,0,0,1-.15.107c-1.892.186-3.818-.026-5.74.133-.09,0-.147.053-.147.108a30.9,30.9,0,0,0-.207,3.333,24.368,24.368,0,0,1-.062,3.279c0,.053-.057.107-.147.107h-.738l-1.214.052c-.592.054-.711,0-.711-.559V39.594l-.059-7.332.059-2.107a.343.343,0,0,1,.119-.32.7.7,0,0,1,.353-.16l12.253.026c.15,0,.327.026.593.053a.127.127,0,0,1,.119.134" transform="translate(12.265 7.076)" fill="#535838"/>
      <path id="Path_75" data-name="Path 75" d="M79.863,45.5c-2.13.053-4.291.053-6.421.134-1.658-.107-3.315-.107-4.944-.16-1.006-.081-1.361-.534-1.39-1.413l-.061-3.813V40.2c.03-3.226,0-6.505-.118-9.732-.03-.746.71-.853,1.391-.826,3.522.08,7.074-.186,10.565.134a.683.683,0,0,1,.593.72c-.059.64.177,1.6-.326,2.107a7.918,7.918,0,0,1-2.517.133c-1.6-.079-3.2-.026-4.794-.026-.681.053-2.19-.56-2.042.533.059.907-.147,1.787-.03,2.694.089.4.681.294,1.037.32l5.3-.053c.474.027,1.065.08,1.184.587.562,2.452-.088,1.866-2.308,1.973-1.48.079-2.96.053-4.44.053-.562-.053-.68.373-.65.8l.088,2.4c0,.453.355.587.8.56a75.859,75.859,0,0,1,7.784.214c.562.159.888.826,1.214,1.253.3.426.946,1.252.088,1.465" transform="translate(15.958 7.061)" fill="#535838"/>
      <path id="Path_76" data-name="Path 76" d="M85.881,33.276c0,.64-.149,1.494-.149,2.16,0,.374.355.507.741.479a40.029,40.029,0,0,1,5.061.134c.857.134,1.035.881,1.095,1.573.03.347.058.72.058,1.094.03.747-.918.507-1.449.533-1.865,0-2.931.081-4.825-.079-.414-.053-.739.107-.71.533l.028,2.56c0,.374.237.586.651.56l3.256.026c1.214.027,3.315-.026,4.557.027,1.037.053,1.184-.213,1.184.853a4.538,4.538,0,0,1-.266,1.892.078.078,0,0,1-.03.053A.112.112,0,0,0,95,45.7c-.592.027-1.984,0-2.576-.027-2.633-.186-4.913-.079-7.546-.105-.918.052-2.1.052-2.073-1.04-.028-1.6.031-3.226.119-4.826.03-2.638,0-5.278.059-7.917.089-1.44-.178-2.187,1.835-2.107,2.16.053,4.351.134,6.481.134.711-.027,3.375.079,4.055.079a.542.542,0,0,1,.445.134,5.046,5.046,0,0,1-.089,2.32,1.522,1.522,0,0,1-.681.107c-2.042-.053-6.274-.053-8.316-.027a.742.742,0,0,0-.829.853" transform="translate(19.741 7.075)" fill="#535838"/>
      <path id="Path_77" data-name="Path 77" d="M118.929,39.179a8.8,8.8,0,0,0,1.214-.027.888.888,0,0,1,.888.4.11.11,0,0,1,.028.134l-.207,1.227a5.517,5.517,0,0,1-2.012,3.2,7.518,7.518,0,0,1-3.344,1.52,8.037,8.037,0,0,1-2.99.026,1.05,1.05,0,0,0-.414-.026,4.963,4.963,0,0,1-3.256-1.281,7.18,7.18,0,0,1-2.4-4.185,12.421,12.421,0,0,1,.059-5.12,6.447,6.447,0,0,1,2.99-4.559,4.536,4.536,0,0,1,2.545-.826,9.208,9.208,0,0,0,1.48-.134,8.324,8.324,0,0,1,4.468,1.039,5.616,5.616,0,0,1,1.953,1.76,4.462,4.462,0,0,1,.977,3.12.2.2,0,0,1-.177.187,5.522,5.522,0,0,1-1.746.213.659.659,0,0,1-.681-.507,5.408,5.408,0,0,0-.3-.987,4.032,4.032,0,0,0-2.486-1.972,5.207,5.207,0,0,0-2.93-.374,3.956,3.956,0,0,0-3.019,2.32,5.774,5.774,0,0,0-.533,2.613c.059.933.059,1.866.149,2.773a4,4,0,0,0,2.692,3.385,3.7,3.7,0,0,0,2.012.241,7.638,7.638,0,0,0,3.019-1.147,3.811,3.811,0,0,0,1.3-1.787l.474-1.092a.306.306,0,0,1,.237-.134" transform="translate(25.322 7.038)" fill="#535838"/>
      <path id="Path_78" data-name="Path 78" d="M133.769,45.416h-.03c-.918-.053-1.629.081-2.515.108-2.042-.134-4.114.186-6.156-.027-.473-.026-1.214.053-1.3-.534a5.773,5.773,0,0,1-.059-1.6c.385-3.707.147-7.465.354-11.2.031-.587.031-1.12.089-1.707a.715.715,0,0,1,.385-.746c.562-.214,1.184.053,1.746-.027a2.155,2.155,0,0,1,.592-.026.534.534,0,0,1,.473.559c0,.934-.088,1.894-.177,2.826-.119,3.04-.178,6.052-.326,9.065,0,.134,0,.481.147.56a7.138,7.138,0,0,0,1.688.16c.71.053,1.391-.053,2.1-.053a23.57,23.57,0,0,0,3.641-.16c.739-.026,1.923-.426,2.012.56.384,2.452-.326,2.213-2.664,2.239" transform="translate(29.488 7.065)" fill="#535838"/>
      <path id="Path_79" data-name="Path 79" d="M151.089,35.236c-.119.853-.059,1.707-.119,2.56-.266,1.946.059,5.144-1.391,6.638a5.735,5.735,0,0,1-3.669,1.387,24.863,24.863,0,0,1-3.729-.134c-4.026-.613-4.056-4.107-3.967-7.146v-.053c0-2.586-.089-5.225.119-7.812.028-.505.147-.746.739-.746.741.026,2.279-.453,2.368.56-.118,3.359-.533,6.718-.473,10.078a3.313,3.313,0,0,0,.562,2.026c1.006,1.359,3.226.479,4.676.346,2.573-.907,2.338-3.786,2.19-5.839-.03-1.305,0-2.612-.089-3.918-.03-.72-.088-1.439-.058-2.16a1.123,1.123,0,0,1,.237-.8,2.471,2.471,0,0,1,1.806-.292.766.766,0,0,1,.65.746,16.811,16.811,0,0,1,.149,4.56" transform="translate(32.95 7.115)" fill="#535838"/>
      <path id="Path_80" data-name="Path 80" d="M166.157,45.062a2.777,2.777,0,0,1-2.13.586c-2.31,0-5.179.027-7.489,0a4.456,4.456,0,0,1-1.331-.213,2.048,2.048,0,0,1-.592-1.573c.03-1.2.03-2.4,0-3.625v-.054c-.207-3.12.473-6.292.266-9.411,0-.613.622-.613,1.126-.639,1.3-.054,2.573.026,3.847.052,2.427-.133,4.44.187,6.127,1.733a4.827,4.827,0,0,1,1.154,2.694c-.03,1.04-.3,1.226-1.095,2.239-.445.561-.415.72.118,1.2a5.528,5.528,0,0,1,1.51,2.639c.384,1.787.207,2.666-1.51,4.373m-1.538-4.425c-.385-.695-.653-1.253-1.422-1.414a18.873,18.873,0,0,0-3.255-.107h-.03c-2.28-.053-2.545.213-2.545,2.133a9.866,9.866,0,0,1-.059,1.866.342.342,0,0,0,.414.4c1.539-.133,3.818.107,5.475-.107a2.247,2.247,0,0,0,.83-.24,1.873,1.873,0,0,0,.592-2.531M157.6,36.824c.118.32.592.213.888.239h1.538a9.17,9.17,0,0,0,2.99-.294,2.734,2.734,0,0,0,1.242-1.146,2.191,2.191,0,0,0-1.419-3.146,6.053,6.053,0,0,0-1.391-.214c-.741-.026-2.427-.026-3.168,0-.324,0-.414.24-.443.481-.059,1.44-.237,2.64-.237,4.079" transform="translate(36.856 7.181)" fill="#535838"/>
    </g>
  </g>
</svg>
