<svg xmlns="http://www.w3.org/2000/svg" xmlns:xlink="http://www.w3.org/1999/xlink" width="824.33" height="89.022" viewBox="0 0 824.33 89.022">
  <defs>
    <clipPath id="clip-path">
      <rect id="Rectangle_4" data-name="Rectangle 4" width="824.33" height="89.022" fill="none"/>
    </clipPath>
  </defs>
  <g id="Group_8" data-name="Group 8" transform="translate(0 0)">
    <g id="Group_7" data-name="Group 7" transform="translate(0 0)" clip-path="url(#clip-path)">
      <path id="Path_51" data-name="Path 51" d="M79.807,53.775c1.226-7.917,2.921-15.833,4.334-23.843L86.216,17.4c.1-.475.376-.945.47-1.415,3.959-.848,14.609-.659,17.719.47l-1.414,7.258L97.335,52.171,93.849,69.323a14.788,14.788,0,0,0-.472,3.486A22.079,22.079,0,0,1,91.116,81.1c-4.43.945-25.255.756-28.459-.185C58.6,68.1,56.909,54.715,52.1,41.9c-.848,3.393-1.978,6.69-2.64,10.181-1.507,7.727-2.732,15.64-4.239,23.465a50.429,50.429,0,0,1-1.7,6.031c-9.519.185-18.753.092-28.365.092-1.6-6.409-3.3-12.439-4.808-18.661L1.684,26.727C1.025,23.8.553,20.977.083,18.058c-.284-2.074.094-2.544,2.262-2.641,4.994-.092,9.9,0,15.078,0a15.718,15.718,0,0,1,1.225,3.3l6.22,27.893L27.6,60.276a7.061,7.061,0,0,0,.847,1.79A10.648,10.648,0,0,0,31.652,56.6l4.617-24.221,1.792-12.155L39.1,15.7c8.67-.189,17.153-1.509,26.1-.1.47,1.7,1.225,3.486,1.695,5.372l7.069,33.832c.47,2.452,1.225,4.9,2.073,8.2a22.309,22.309,0,0,0,3.769-9.231" transform="translate(0 7.3)" fill="#535838"/>
      <path id="Path_52" data-name="Path 52" d="M102.149,15.892c.848,21.58-1.414,43.255-.565,65.4-5.843.94-11.31.189-16.4.378-1.6-1.415-1.223-3.016-1.129-4.431l.376-27.047L84.62,20.7V15.892c11.024-1.507,13.759-1.507,17.528,0" transform="translate(40.964 7.203)" fill="#535838"/>
      <path id="Path_53" data-name="Path 53" d="M130.676,15.724l.376,50.606a25.59,25.59,0,0,0,4.806.94l21.2-.47c4.619,0,9.234.189,14.229.378V80.559l-4.147.189-49.569.94h-4.053c-.092-1.7-.375-3.107-.375-4.43l.47-23.181.189-33.831V15.816c6.031-1.7,11.213-.562,16.869-.092" transform="translate(55.213 7.278)" fill="#535838"/>
      <path id="Path_54" data-name="Path 54" d="M180.417,15.154c5.372.661,10.931.283,16.4.283a42.728,42.728,0,0,1,13.759,2.355A30.12,30.12,0,0,1,230.74,46.066a2.536,2.536,0,0,0,0,.848c.848,7.254-1.7,13.852-4.523,20.26a10.01,10.01,0,0,1-1.792,2.638c-6.031,6.5-13,11.026-22.144,11.215l-34.491.567c-1.226,0-2.544-.189-4.053-.286a22,22,0,0,1-.375-3.3l.186-37.036V21.092l.284-5.467c6.031-.189,11.213-1.131,16.585-.472m.565,49.477,5.842.751c4.9.475,9.8,1.228,14.7.378,5.183-1.037,9.8-3.107,11.968-8.291A21.877,21.877,0,0,0,211.987,37.3a8.185,8.185,0,0,0-5.561-4.242c-4.43-1.037-8.764-1.978-13.381-1.7-3.582.286-7.162.286-10.931.475C180.983,39,180.228,61.8,180.983,64.63" transform="translate(79.716 7.282)" fill="#535838"/>
      <path id="Path_55" data-name="Path 55" d="M321.605,81.426a55.164,55.164,0,0,1-11.213-.1,26.558,26.558,0,0,0-4.712-.092c-1.884.378-2.732-.378-3.486-1.885l-8.106-18.186A15.406,15.406,0,0,1,293.053,59a3.77,3.77,0,0,0-3.771-2.922c-2.64-.092-5.276-.567-7.916-.567-2.922,0-5.843.378-8.764.567-1.6,1.6-1.7,3.582-1.7,5.561V77.561c0,1.223-.189,2.357-.281,3.394-3.205.845-11.216,1.034-16.305.47a25.243,25.243,0,0,1-.281-2.641l.281-40.614-.094-15.927V19.418c0-3.486.283-3.675,3.958-3.961l2.732-.092c7.729-.189,15.456-.567,23.184-.47A148.634,148.634,0,0,1,305.584,16.3c8.483,1.415,14.42,6.788,16.305,15.079,1.695,7.257-.567,14.514-7.822,19.979-1.7,1.318-3.771,2.074-4.808,4.334,3.394,8.669,8.483,16.585,12.346,25.729M272.132,34.684l.565,5.372c8.292,0,16.3.092,24.218-.1a19.162,19.162,0,0,0,6.218-1.129c3.394-1.226,3.96-3.864,1.887-6.6a8.088,8.088,0,0,0-6.5-3.3,76.292,76.292,0,0,1-9.234-.281,62.337,62.337,0,0,0-17.622.751Z" transform="translate(123.963 7.26)" fill="#535838"/>
      <path id="Path_56" data-name="Path 56" d="M332.955,15.892c.848,21.58-1.414,43.255-.565,65.4-5.843.94-11.31.189-16.4.378-1.6-1.415-1.223-3.016-1.129-4.431l.376-27.047.189-29.493V15.892c11.024-1.507,13.759-1.507,17.528,0" transform="translate(153.591 7.203)" fill="#535838"/>
      <path id="Path_57" data-name="Path 57" d="M413.164,28.929l-22.428.189c-4.992.092-5.276.378-5.276,5.183v47.12c-5.842.189-11.4.942-17.15-.756l-.19-4.8-.281-37.128c0-3.016-.378-6.031-.659-9.333-9.52-.659-18.85,0-28.083-.378-.85-3.108-.85-9.42,0-13.57a32.1,32.1,0,0,1,4.428-.562c7.068.092,14.134.378,21.2.378h38.354c2.827,0,5.654-.286,8.388-.286,1.695,0,3.393.189,5.278.378V28.741c-1.226,0-2.355.189-3.583.189" transform="translate(165.158 7.265)" fill="#535838"/>
      <path id="Path_58" data-name="Path 58" d="M464.246,15.851a10.818,10.818,0,0,1,.378,1.882c.187,7.538.565,15.174.376,22.712-.1,7.54-.754,15.079-1.225,22.617-.473,8.2-5.278,13.1-12.441,16.019a35.743,35.743,0,0,1-12.911,2.452c-5.653,0-11.4-.284-17.15-.756-5.467-.567-9.99-3.486-13.947-7.257a7.581,7.581,0,0,1-2.074-3.3c-1.789-4.523-3.391-9.139-3.3-14.229.188-11.685.1-23.369.188-35.058,0-1.7.284-3.39.378-4.994,3.675-.94,11.968-1.037,17.246-.378.094.945.378,1.982.378,2.924-.1,6.312-.378,12.532-.378,18.753.094,6.5.189,13,.659,19.509a15.636,15.636,0,0,0,2.451,6.595,7.948,7.948,0,0,0,4.053,2.922c4.709,1.6,9.517,1.034,14.229-.189A5.412,5.412,0,0,0,445.4,61.27a97.831,97.831,0,0,0,1.414-11.777c.189-9.706.1-19.412.189-29.118V15.566c5.843-.94,11.5-.47,17.246.286" transform="translate(196.141 7.34)" fill="#535838"/>
      <path id="Path_59" data-name="Path 59" d="M511.029,38.455l8.01,30.344,4.241,16.964.281,2.074c-4.994,1.318-9.987,1.037-14.793.94-1.6-.092-2.262-1.318-2.64-2.733l-2.449-10.837-.659-2.07c-7.918-1.793-15.927,0-24.22-1.226l-5.467,16.866c-4.806,0-9.517.1-14.134,0-2.074,0-2.735-1.037-2.451-3.107a23.067,23.067,0,0,1,.565-2.735L471.825,34.5c1.129-3.486,2.546-6.973,3.769-10.459a2.737,2.737,0,0,1,2.827-2.263h28.648l2.922,11.591c.472,1.7.567,3.394,1.037,5.087M490.673,8.487c.189,5.372-3.11,8.766-8.2,8.484l-2.64-.472c-5.278-1.134-7.633-6.409-5.653-12.061.848-2.263,1.978-3.675,4.334-3.675,1.412-.189,2.732-.664,4.146-.756,4.806-.189,7.916,3.205,8.011,8.48m8.292,43.633c-.378-5.938-2.827-11.31-4.806-16.774-.283-.942-1.979-1.887-3.016-1.979-.848-.1-1.884,1.226-2.638,2.071-.378.286-.472.945-.659,1.415-1.037,3.583-2.262,7.069-3.205,10.648-.659,2.641-1.037,5.372-1.7,8.386,5.467.378,10.46.189,15.738.1a30.926,30.926,0,0,0,.283-3.864m11.5-43.633c.188,5.372-3.11,8.766-8.2,8.484l-2.638-.472c-5.276-1.134-7.633-6.409-5.653-12.061.847-2.263,1.978-3.675,4.335-3.675C499.72.574,501.038.1,502.452.007c4.806-.189,7.917,3.205,8.011,8.48" transform="translate(222.849 0)" fill="#535838"/>
      <path id="Path_60" data-name="Path 60" d="M532.448,15.724l.376,50.606a25.59,25.59,0,0,0,4.806.94l21.2-.47c4.616,0,9.234.189,14.229.378V80.559l-4.147.189-49.569.94h-4.053c-.094-1.7-.375-3.107-.375-4.43l.47-23.181.189-33.831V15.816c6.031-1.7,11.213-.562,16.869-.092" transform="translate(251.266 7.278)" fill="#535838"/>
    </g>
  </g>
</svg>
