<svg id="Group_2" data-name="Group 2" xmlns="http://www.w3.org/2000/svg" xmlns:xlink="http://www.w3.org/1999/xlink" width="145.187" height="138.489" viewBox="0 0 145.187 138.489">
  <defs>
    <clipPath id="clip-path">
      <rect id="Rectangle_1" data-name="Rectangle 1" width="145.187" height="138.489" fill="none"/>
    </clipPath>
  </defs>
  <g id="Group_1" data-name="Group 1" clip-path="url(#clip-path)">
    <path id="Path_1" data-name="Path 1" d="M87.9,71.111l-5.259.034-4.265-.011A3.171,3.171,0,0,1,77.061,67.5l2.318-3.754a2.581,2.581,0,0,1,1.706-1.171,22.535,22.535,0,0,1,7.15-.368c.455.055.8.23,1.221-.042a2.12,2.12,0,0,0,.209-2.551,1.783,1.783,0,0,0-1.383-.666s-9.355.713-10.455.462c-.31-.071-.487-.942-.8-1.5a.422.422,0,0,1,.123-.551c.7-.476,1.81-.126,3.4-.133a59.638,59.638,0,0,0,8.488-.33c.673-.09-.171-3.291-3.3-3.34a28.365,28.365,0,0,0-6.123.6c-1.134.228-2.1.392-2.55-.4-.729-1.273,5.2-4.757,5.773-7.024a2.394,2.394,0,0,0-2.6-2.762,3.323,3.323,0,0,0-2.165,1.664l-3.5,5.209a1.15,1.15,0,0,1-1.128.561c-2.742-.558,3.333-9.064-1.058-10.473a2.1,2.1,0,0,0-2.488.85,5.4,5.4,0,0,0-.762,2.986l-.1,5.594a1.041,1.041,0,0,1-.684.9c-1.425.422-1.756-2.585-2.129-4.345l-.8-3.773a2.112,2.112,0,0,0-2.062-1.647,2.565,2.565,0,0,0-2.334,2.752,5.832,5.832,0,0,0,.54,2.135L64.188,52.5a1.163,1.163,0,0,1-.282,1.244,1.105,1.105,0,0,1-1.3,0l-3.04-2.5c-1.773-1.461-3.874-3.823-5.917-2.7a2.152,2.152,0,0,0-1.118,1.881A3.062,3.062,0,0,0,54.2,52.8l5.905,3.429c.908.527,1.831,1.116,1.5,2.025-.3.831-2.378.433-3.857-.128l-4.162-1.579a2.332,2.332,0,0,0-2.778.538,2.035,2.035,0,0,0,.9,2.936,13.565,13.565,0,0,0,2.933,1.051l5.844,1.455a2.532,2.532,0,0,1,1.407.8c1.752,2.48,2.407,3.992,1.388,7-2.3-1.568-3.38-5.227-5.873-4.438A3.517,3.517,0,0,0,55,69.953c.3,1.807,1.642,3.131,1.484,3.81-.149.638-1.109.5-2.009-.177a4.383,4.383,0,0,0-2.213-1.209,1.861,1.861,0,0,0-1.726,1.766c-.091,1.076-.268,1.546.776,1.881l12.436,3.985,3.626.637a4.1,4.1,0,0,0,4.411-3.422,5.306,5.306,0,0,0-2.639-5.452c-.555-.332-1.354-.325-1.853-.9-.41-.47-.126-2.071.707-2.116a6.35,6.35,0,0,1,4.649,1.894c3.085,3.159,2.635,9.5-.783,11.738-2.909,1.9-7.359.829-10.75-.209L52.5,79.543a1.851,1.851,0,0,0-2.01.375A3.2,3.2,0,0,0,49.883,82l.043,8.236a7.466,7.466,0,0,0,4.629,6.921,10.129,10.129,0,0,0,6.874.466,7.7,7.7,0,0,0,5.417-7.994c-.05-.729-.427-1.486-.072-2.209.209-.427,1.138-.319,1.477.007a26.711,26.711,0,0,1,3.289,3.863.9.9,0,0,1,0,1.087l-2.16,2.985a1.652,1.652,0,0,0-.363,1.668,1.41,1.41,0,0,0,1.252.895,2.26,2.26,0,0,0,1.761-.771,33.023,33.023,0,0,0,3.384-4.374,1.623,1.623,0,0,0-.27-1.935l-3.079-3.407a.659.659,0,0,1,.006-.779.6.6,0,0,1,.847-.08l5.349,5.1a.95.95,0,0,1,.286,1.207l-1.53,2.432a1.527,1.527,0,0,0,.074,1.938,1.548,1.548,0,0,0,2.079.163,15.606,15.606,0,0,0,2.836-3.9,1.856,1.856,0,0,0-.295-2.279l-5.462-5.313c-.426-.414-.807-1.2-.371-1.735,3.522-4.286,2.008-7.613,4.087-7.723.768-.041,1.265.671,1.282,1.485l.186,9.183c.014.715.661.671,1.143.646.769-.041,1.268-.049,1.587-.689a5.089,5.089,0,0,0,.351-2.245l-.06-8.233a1.067,1.067,0,0,1,.633-1.064.949.949,0,0,1,1.222.491,5.458,5.458,0,0,1,.386,2.311l.18,6.179c.037,1.293-.3,3.148.389,3.695a6.322,6.322,0,0,0,1.952.08c.552-.045.519-.519.552-1.18l.159-3.231-.147-8.954c-.03-1.854-.283-3.84-1.893-3.829M62.3,75.918a1.674,1.674,0,0,1-1.951-.562l-2.265-4.248c-.333-.623-.335-1.645.411-1.887.478-.156.9.507,1.1.836.609.988,1.235,1.8,1.917,2.706l1.3,1.716a1.139,1.139,0,0,1-.507,1.439M63.73,91.244c-.662,2.752-3.793,4.237-6.4,4.237A4.992,4.992,0,0,1,53.3,93.706a5.5,5.5,0,0,1-.96-5.613,5.776,5.776,0,0,1,4.621-3.447,5.651,5.651,0,0,1,.684-.04,6.791,6.791,0,0,1,5.162,2.356,4.921,4.921,0,0,1,.919,4.282M68.508,74.9a1.65,1.65,0,0,1-.028,1.878,1.132,1.132,0,0,1-1.165.406c-1.231-.366-1.211-2.563-.532-3.05.586-.42,1.432.323,1.725.766m7.355-11.873a5.511,5.511,0,0,1-4.444,2.2c-.1,0-1.15.114-1.569.134-2.35.115-5.562-3.4-4.717-6.437a3.927,3.927,0,0,1,.262-.677A5.136,5.136,0,0,1,66.1,56.57a5.437,5.437,0,0,1,4.733-2.255c2.713,0,4.9,1.314,5.662,3.362.26,1.547.241,4.159-.634,5.35" fill="#535838"/>
    <path id="Path_2" data-name="Path 2" d="M73.319,59.924a2.069,2.069,0,0,1-1.668.824c-.039,0-.431.043-.588.051a2.1,2.1,0,0,1-1.771-2.416,1.511,1.511,0,0,1,.1-.253,1.915,1.915,0,0,1,.265-.629,2.04,2.04,0,0,1,1.776-.846,2.15,2.15,0,0,1,2.125,1.262,3.191,3.191,0,0,1-.238,2.007" fill="#535838"/>
    <path id="Path_3" data-name="Path 3" d="M59.283,91.609a2.705,2.705,0,0,1-2.183,1.08c-.052,0-.566.056-.771.066a2.752,2.752,0,0,1-2.318-3.162,1.982,1.982,0,0,1,.129-.333,2.529,2.529,0,0,1,.347-.824,2.671,2.671,0,0,1,2.326-1.107A2.817,2.817,0,0,1,59.6,88.98a4.176,4.176,0,0,1-.312,2.629" fill="#535838"/>
    <path id="Path_4" data-name="Path 4" d="M10.455,64.678c-2.114-.349-4.226-.822-6.364-1.22L.746,62.872c-.127-.027-.252-.1-.378-.131a14.1,14.1,0,0,1,.171-4.735l1.937.4,7.6,1.585,4.576.976a3.921,3.921,0,0,0,.931.135,5.926,5.926,0,0,1,2.212.625,38.256,38.256,0,0,1-.123,7.609c-3.437,1.051-7.019,1.47-10.459,2.723.906.236,1.784.547,2.715.732,2.063.423,4.176.77,6.263,1.194a13.328,13.328,0,0,1,1.608.468c.027,2.546-.022,5.015-.047,7.585-1.717.412-3.334.85-5,1.238L3.024,85.5c-.783.169-1.54.287-2.323.406-.554.071-.679-.031-.7-.612C-.01,83.957.027,82.646.04,81.26a4.2,4.2,0,0,1,.886-.319L8.4,79.349l3.66-.7a1.822,1.822,0,0,0,.481-.222,2.857,2.857,0,0,0-1.453-.871L4.624,76.265l-3.246-.511L.171,75.466a38.061,38.061,0,0,1,.041-6.98c.456-.121.936-.319,1.441-.44l9.064-1.8c.657-.12,1.314-.314,2.2-.533a5.965,5.965,0,0,0-2.459-1.031" fill="#535838"/>
    <path id="Path_5" data-name="Path 5" d="M3.85,47.764c5.595,1.422,10.98,3.649,16.721,5.114a32.413,32.413,0,0,1-1.15,4.232,1.21,1.21,0,0,1-1.221-.047l-6.9-2.151L3.75,52.622l-1.232-.365c.451-2.941.658-3.642,1.332-4.493" fill="#535838"/>
    <path id="Path_6" data-name="Path 6" d="M9.318,34.954l11.647,6.89a6.812,6.812,0,0,0,.879-.972l2.815-4.923c.636-1.058,1.316-2.09,2.048-3.208l3.065,1.844-.528.976L22.627,47.049l-.559.928c-.4-.212-.764-.341-1.066-.523l-5.247-3.3L8.029,39.443l-1.015-.611a11.825,11.825,0,0,1,2.3-3.878" fill="#535838"/>
    <path id="Path_7" data-name="Path 7" d="M26.259,15.4A36.3,36.3,0,0,0,29.9,12.952a11.383,11.383,0,0,1,3.377-1.586,8.052,8.052,0,0,1,8.742,3.117.688.688,0,0,0,.129.186,10.377,10.377,0,0,1,2.1,5.134,2.682,2.682,0,0,1,.01.853A8.152,8.152,0,0,1,41.119,26.5l-7.476,5.394c-.269.187-.587.348-.932.558a5.876,5.876,0,0,1-.587-.666l-5.618-8.15-3.038-4.36-.773-1.242A29.476,29.476,0,0,1,26.259,15.4m7.684,10.762,1.4-.728a14.647,14.647,0,0,0,3.282-2.164,3.94,3.94,0,0,0,1.357-3.647,5.846,5.846,0,0,0-3.413-4.192,2.189,2.189,0,0,0-1.866-.08A12.226,12.226,0,0,0,31.5,17.02c-.742.61-1.527,1.156-2.325,1.774a54.97,54.97,0,0,0,4.763,7.364" fill="#535838"/>
    <path id="Path_8" data-name="Path 8" d="M78.66,17.8a14.834,14.834,0,0,1-3-.027,7.028,7.028,0,0,0-1.26-.026.748.748,0,0,1-.932-.5l-2.164-4.864a4.2,4.2,0,0,1-.277-.58,1.006,1.006,0,0,0-1.006-.781c-.706-.026-1.412-.152-2.117-.153-.782,0-1.563.1-2.344.15a1.912,1.912,0,0,0-.454,1.486l0,4.259c0,.327-.05.63-.076.906a16.082,16.082,0,0,1-4.359.124,6.764,6.764,0,0,1-.075-.706l.082-10.86-.023-4.258V1.209c0-.932.076-.982,1.059-1.057l.731-.025C64.51.078,66.576-.022,68.643,0a39.78,39.78,0,0,1,5.744.381,5.092,5.092,0,0,1,4.357,4.035,5,5,0,0,1-2.1,5.34c-.454.352-1.008.554-1.286,1.158.906,2.319,2.265,4.437,3.3,6.881M65.439,5.294,65.59,6.73c2.217,0,4.359.028,6.475-.021a5.116,5.116,0,0,0,1.664-.3,1.023,1.023,0,0,0,.5-1.763A2.161,2.161,0,0,0,72.5,3.761a20.167,20.167,0,0,1-2.469-.077,16.687,16.687,0,0,0-4.712.2Z" fill="#535838"/>
    <path id="Path_9" data-name="Path 9" d="M92.574,3.685c-1.348,5.615-3.5,11.029-4.892,16.79a32.711,32.711,0,0,1-4.247-1.093,1.21,1.21,0,0,1,.03-1.222l2.06-6.933,2.19-7.577.348-1.237c2.947.412,3.65.611,4.511,1.272" fill="#535838"/>
    <path id="Path_10" data-name="Path 10" d="M114.572,19.254l-5.075-3.2c-1.138-.7-1.242-.678-1.936.4l-6.808,10.6A13.979,13.979,0,0,1,97,24.416l.652-1.108,5.3-8.4c.435-.679.787-1.412,1.2-2.2-2.046-1.524-4.241-2.723-6.265-4.142a9.743,9.743,0,0,1,1.96-3.054,8.374,8.374,0,0,1,1.079.512c1.577,1.042,3.127,2.128,4.718,3.149l8.631,5.541c.636.409,1.314.753,1.928,1.148a14.017,14.017,0,0,1,1.134.848L115.4,19.729c-.275-.177-.557-.3-.833-.475" fill="#535838"/>
    <path id="Path_11" data-name="Path 11" d="M132.244,36.016a2.952,2.952,0,0,1-.353.375c-1.611,1.209-3.216,2.475-4.886,3.6-1.656,1.148-3.4,2.174-5.114,3.24a4.73,4.73,0,0,1-5.417-.225,9.56,9.56,0,0,1-2.536-2.432c-.876-1.231-1.706-2.527-2.494-3.851a6.4,6.4,0,0,1-.582-4.162,2.022,2.022,0,0,1,.4-.963,9.791,9.791,0,0,1,2.587-2.924c2.573-1.77,5.1-3.6,7.662-5.393.369-.263.783-.465,1.146-.692a16.19,16.19,0,0,1,2.756,3.7c-.191.167-.373.389-.578.535-1.389.958-2.788,1.861-4.142,2.825-1.4,1.029-2.8,2.057-4.145,3.168a4.179,4.179,0,0,0-1.057,1.556,2.13,2.13,0,0,0-.008,1.335,6.531,6.531,0,0,0,2.247,3.069,1.447,1.447,0,0,0,1.7.179,26.311,26.311,0,0,0,2.785-1.519c2.142-1.463,4.241-2.989,6.369-4.472l1.047-.746a15.707,15.707,0,0,1,2.612,3.8" fill="#535838"/>
    <path id="Path_12" data-name="Path 12" d="M135.576,59.9l-7.449,3.865-4.178,2.1-.525.2a14.077,14.077,0,0,1-1.111-3.806c-.069-.423.212-.667.559-.848l2.685-1.273.5-.293c0-2.17-.931-4.156-1.1-6.391l-4.721-.44c-.281-1.254-.581-2.478-.826-3.688-.121-.541.111-.774.668-.821a6.272,6.272,0,0,1,.747-.013l13.486.955c.976.091,1.968.256,2.95.371a.732.732,0,0,1,.755.606l1.675,7.475-2.853,1.44c-.415.222-.852.346-1.267.568M131.3,57.553a16.3,16.3,0,0,0,4.1-2.234,1.088,1.088,0,0,0,.341-.9c-.025-.227-.43-.42-.695-.567-.1-.082-.274-.068-.408-.09-.995-.061-1.976-.177-2.965-.213-.728-.018-1.463.044-2.288.048.221,1.448.563,2.741.9,4.112a8.308,8.308,0,0,0,1.024-.153m10.9-4.714a1.993,1.993,0,0,1-2.693-1.644l-.031-.716A2.285,2.285,0,0,1,142.3,48.3c.64.089,1.074.3,1.212.916.132.357.332.674.439,1.038a2.047,2.047,0,0,1-1.744,2.586M143.362,58a1.992,1.992,0,0,1-2.692-1.643l-.032-.716a2.285,2.285,0,0,1,2.816-2.181c.64.089,1.076.3,1.213.917.132.357.332.674.44,1.037A2.047,2.047,0,0,1,143.362,58" fill="#535838"/>
    <path id="Path_13" data-name="Path 13" d="M140.04,75.082l-13.519-.554a6.891,6.891,0,0,0-.314,1.272l-.147,5.668c-.06,1.233-.171,2.463-.285,3.795L122.2,85.09l0-1.109.388-13.25.053-1.081c.454,0,.835-.061,1.188-.045l6.184.426,9.032.488,1.183.056a11.821,11.821,0,0,1-.193,4.507" fill="#535838"/>
    <path id="Path_14" data-name="Path 14" d="M21.076,118.547c.113.541-.026.736-.59.773a9.636,9.636,0,0,1-3.674-.506,15.616,15.616,0,0,1-2.7-1.274,5.185,5.185,0,0,1-1.2-1.181,3.928,3.928,0,0,1-.445-.611,8.532,8.532,0,0,1-1.621-7.923,1.087,1.087,0,0,0,.068-.2,6.758,6.758,0,0,1,2.352-4.05,9.322,9.322,0,0,1,2.909-1.869,8.64,8.64,0,0,1,6.94.154,18.015,18.015,0,0,1,2.94,1.725,3.316,3.316,0,0,1,1.032,1.462,14.833,14.833,0,0,1,1.351,3.225,14.8,14.8,0,0,1-.259,4.74,5.1,5.1,0,0,1-.653-.211c-.771-.374-1.515-.8-2.272-1.152a1.021,1.021,0,0,1-.671-1.007c.023-.141-.011-.272.011-.413a5.5,5.5,0,0,0-1.771-4.1,2.551,2.551,0,0,0-.959-.674,5.719,5.719,0,0,0-5.371.544A5.174,5.174,0,0,0,15.2,112.7c1.157,1.932,2.408,2.58,5.033,2.633.3,1.093.6,2.151.847,3.218" fill="#535838"/>
    <path id="Path_15" data-name="Path 15" d="M29.549,129.745a7.732,7.732,0,0,1-3.041-4.482c-.183-.6-.285-1.191-.444-1.78a5.258,5.258,0,0,1,.144-2.514,9.567,9.567,0,0,1,2.166-4.418,8.072,8.072,0,0,1,4.316-2.592,11.968,11.968,0,0,1,3.9-.276,7.4,7.4,0,0,1,3.554,1.494,8.75,8.75,0,0,1,2.909,3.191,9.251,9.251,0,0,1,1.216,4.906,5.784,5.784,0,0,1-.914,3.225l-.936,1.546a8.27,8.27,0,0,1-5.19,3.48,13.377,13.377,0,0,1-2.216.311c-1.214.083-1.4,0-2.988-.7a7.409,7.409,0,0,1-2.476-1.388m10.324-6.188a3.779,3.779,0,0,0-.167-3c-1.728-2.494-3.19-3.175-5.841-2.747a4.246,4.246,0,0,0-3.567,3.6,4.519,4.519,0,0,0,.686,3.775,4.768,4.768,0,0,0,8.581-.712,5.915,5.915,0,0,0,.308-.91" fill="#535838"/>
    <path id="Path_16" data-name="Path 16" d="M49.329,118.457,62.7,120.993c.347.066.712.034,1.058.1l1.54.4-.493,3.78-1.2-.178-9.978-1.886a2.464,2.464,0,0,0-1.626.047l-.441,2.3c2.569,1.056,5.337,1.2,8.071,1.93-.182,1.223-.406,2.386-.688,3.589a7.172,7.172,0,0,1-2.611-.295,18.68,18.68,0,0,0-4.815-.846c-.92-.022-1.152.113-1.322,1l-1.015,5.3a11.815,11.815,0,0,1-4.34-.779l3.281-17.127a11.184,11.184,0,0,1,1.207.129" fill="#535838"/>
    <path id="Path_17" data-name="Path 17" d="M69.2,120.813l13.588-.7c.352-.017.7-.136,1.052-.153l1.59.022.415,3.789-1.206.11-10.14.529a2.449,2.449,0,0,0-1.567.431l.116,2.34c2.745.419,5.469-.1,8.3-.033.112,1.23.171,2.413.182,3.649a7.184,7.184,0,0,1-2.607.33,18.755,18.755,0,0,0-4.878.318c-.9.2-1.092.384-1.047,1.289l.268,5.385a11.8,11.8,0,0,1-4.4.269L68,120.974a11.264,11.264,0,0,1,1.2-.161" fill="#535838"/>
    <path id="Path_18" data-name="Path 18" d="M104.837,118.061l-9.756,3.246a2.134,2.134,0,0,0-1.31.777l.743,2.25c2.678-.327,5.128-1.507,7.681-2.136a5.122,5.122,0,0,1,1.209,3.582l-2.369.781c-1.517.553-3.016,1.074-4.525,1.652-.75.3-.822.4-.657,1.224a16.748,16.748,0,0,0,.7,1.788,2.463,2.463,0,0,0,.67-.061l6.558-2.323,4.874-1.636a2,2,0,0,1,.517-.037,17.467,17.467,0,0,1,1.018,3.485c-5.671,1.791-11.137,3.967-16.818,5.814-1.018-2.848-1.9-5.608-2.764-8.376s-1.68-5.576-2.547-8.447a6.979,6.979,0,0,1,.925-.412l12.709-4.193c.407-.134.788-.34,1.188-.5a2.762,2.762,0,0,1,1.754-.314l1.146,3.47c-.3.127-.631.261-.942.364" fill="#535838"/>
    <path id="Path_19" data-name="Path 19" d="M120.79,102.8l-6.8,7.7a2.132,2.132,0,0,0-.742,1.328l1.771,1.572c2.151-1.627,3.677-3.876,5.567-5.7a5.126,5.126,0,0,1,2.843,2.49l-1.656,1.865c-1.033,1.239-2.068,2.442-3.082,3.7-.5.636-.507.762.048,1.389a16.633,16.633,0,0,0,1.5,1.2,2.431,2.431,0,0,0,.548-.389l4.5-5.3,3.394-3.86a1.991,1.991,0,0,1,.428-.293,17.727,17.727,0,0,1,2.629,2.5c-4,4.4-7.636,9.019-11.619,13.467-2.31-1.95-4.46-3.892-6.593-5.853s-4.251-3.976-6.442-6.023a6.717,6.717,0,0,1,.594-.82l8.879-10c.285-.32.513-.69.778-1.028a2.775,2.775,0,0,1,1.359-1.151l2.732,2.425c-.2.262-.415.542-.632.787" fill="#535838"/>
  </g>
</svg>
