<svg xmlns="http://www.w3.org/2000/svg" xmlns:xlink="http://www.w3.org/1999/xlink" width="126.665" height="69.056" viewBox="0 0 126.665 69.056">
  <defs>
    <clipPath id="clip-path">
      <rect id="Rectangle_2" data-name="Rectangle 2" width="126.665" height="69.056" transform="translate(0 0)" fill="none"/>
    </clipPath>
  </defs>
  <g id="Group_4" data-name="Group 4" transform="translate(0 0)">
    <g id="Group_3" data-name="Group 3" clip-path="url(#clip-path)">
      <path id="Path_20" data-name="Path 20" d="M19.175,47.669a15.619,15.619,0,0,1-3.182-.027,7.517,7.517,0,0,0-1.337-.027.793.793,0,0,1-.99-.535l-2.3-5.161a4.36,4.36,0,0,1-.294-.615A1.069,1.069,0,0,0,10,40.475c-.749-.027-1.5-.161-2.246-.161-.829,0-1.658.107-2.487.161a2.032,2.032,0,0,0-.482,1.578v4.519c0,.347-.054.669-.08.964a17.2,17.2,0,0,1-4.627.133,7.068,7.068,0,0,1-.08-.75L.08,35.393.053,30.874v-.8c0-.989.081-1.043,1.124-1.124l.775-.026c2.193-.053,4.386-.161,6.579-.133a42.234,42.234,0,0,1,6.1.4,5.4,5.4,0,0,1,4.627,4.279,5.311,5.311,0,0,1-2.22,5.67c-.482.374-1.07.589-1.364,1.23.963,2.46,2.407,4.707,3.5,7.3M5.135,34.4l.16,1.524c2.354,0,4.627.027,6.874-.027a5.408,5.408,0,0,0,1.764-.321,1.087,1.087,0,0,0,.535-1.872,2.292,2.292,0,0,0-1.845-.936A21.457,21.457,0,0,1,10,32.692a17.671,17.671,0,0,0-5,.214Z" fill="#535838"/>
      <path id="Path_21" data-name="Path 21" d="M30.8,29.055c.241,6.124-.4,12.276-.16,18.561a34.725,34.725,0,0,1-4.654.107,1.284,1.284,0,0,1-.321-1.257l.107-7.676.053-8.37V29.055c3.129-.428,3.9-.428,4.975,0" fill="#535838"/>
      <path id="Path_22" data-name="Path 22" d="M56.85,32.772l-6.365.054c-1.417.026-1.5.107-1.5,1.47V47.669a14.869,14.869,0,0,1-4.867-.215l-.053-1.363-.08-10.537c0-.856-.108-1.712-.188-2.648-2.7-.188-5.349,0-7.969-.108a10.313,10.313,0,0,1,0-3.851,9.168,9.168,0,0,1,1.257-.16c2.006.027,4.011.108,6.017.108H53.989c.8,0,1.6-.081,2.38-.081.481,0,.963.053,1.5.107v3.8c-.348,0-.669.054-1.017.054" fill="#535838"/>
      <path id="Path_23" data-name="Path 23" d="M80.139,29.082a3.042,3.042,0,0,1,.107.534c.053,2.14.161,4.306.107,6.446-.027,2.139-.214,4.279-.348,6.419a5.02,5.02,0,0,1-3.53,4.546,10.162,10.162,0,0,1-3.664.7c-1.6,0-3.236-.081-4.867-.215a6.794,6.794,0,0,1-3.958-2.059,2.146,2.146,0,0,1-.589-.936,10.4,10.4,0,0,1-.936-4.038c.053-3.316.027-6.632.053-9.95,0-.481.081-.961.108-1.417A17.228,17.228,0,0,1,67.516,29c.027.268.107.563.107.83-.027,1.791-.107,3.556-.107,5.322.027,1.845.053,3.69.187,5.536A4.446,4.446,0,0,0,68.4,42.56a2.259,2.259,0,0,0,1.151.83,6.937,6.937,0,0,0,4.038-.054,1.535,1.535,0,0,0,1.2-1.364,27.758,27.758,0,0,0,.4-3.343c.054-2.754.027-5.509.054-8.263V29a16.646,16.646,0,0,1,4.894.081" fill="#535838"/>
      <path id="Path_24" data-name="Path 24" d="M101,33.413l2.273,8.612,1.2,4.814.08.589a14.9,14.9,0,0,1-4.2.267c-.454-.026-.641-.374-.749-.776l-.695-3.075-.187-.588c-2.246-.509-4.52,0-6.873-.348L90.3,47.695c-1.364,0-2.7.028-4.012,0-.589,0-.776-.294-.695-.882a6.562,6.562,0,0,1,.16-.776L89.87,32.291c.32-.99.722-1.979,1.07-2.968a.776.776,0,0,1,.8-.643h8.13l.829,3.29c.134.481.161.963.294,1.443m-5.776-8.5a2.116,2.116,0,0,1-2.327,2.408l-.749-.134c-1.5-.322-2.166-1.819-1.6-3.423.241-.643.562-1.043,1.231-1.043.4-.054.775-.188,1.176-.215a2.174,2.174,0,0,1,2.274,2.407m2.353,12.383a17.327,17.327,0,0,0-1.364-4.761,1.152,1.152,0,0,0-.856-.561c-.241-.027-.534.348-.748.588-.108.081-.134.268-.188.4-.294,1.017-.641,2.006-.909,3.022-.187.75-.294,1.524-.482,2.38,1.552.107,2.969.054,4.467.028a8.9,8.9,0,0,0,.08-1.1m3.263-12.383a2.116,2.116,0,0,1-2.327,2.408l-.749-.134c-1.5-.322-2.166-1.819-1.6-3.423.24-.643.561-1.043,1.23-1.043.4-.054.775-.188,1.176-.215a2.174,2.174,0,0,1,2.274,2.407" fill="#535838"/>
      <path id="Path_25" data-name="Path 25" d="M115.138,29.028l.107,14.362a7.259,7.259,0,0,0,1.364.267l6.017-.134c1.31,0,2.621.054,4.039.107v3.8l-1.177.053-14.068.268h-1.15c-.027-.482-.107-.883-.107-1.258l.134-6.578.054-9.6V29.054a12.544,12.544,0,0,1,4.787-.026" fill="#535838"/>
      <path id="Path_26" data-name="Path 26" d="M22.649,11.1c.348-2.247.829-4.494,1.23-6.767L24.468.777c.027-.135.107-.268.133-.4A14.937,14.937,0,0,1,29.63.509l-.4,2.059-1.6,8.077-.99,4.868a4.2,4.2,0,0,0-.134.989,6.271,6.271,0,0,1-.642,2.353,40.526,40.526,0,0,1-8.076-.053c-1.15-3.637-1.631-7.435-3-11.073-.24.963-.561,1.9-.749,2.889-.428,2.194-.775,4.439-1.2,6.66a14.075,14.075,0,0,1-.482,1.711c-2.7.053-5.321.027-8.049.027-.455-1.819-.937-3.531-1.364-5.3L.478,3.424C.291,2.594.157,1.792.024.964-.057.375.051.242.666.214c1.417-.026,2.808,0,4.279,0a4.469,4.469,0,0,1,.347.937L7.057,9.067l.776,3.878a2,2,0,0,0,.24.508,3.023,3.023,0,0,0,.91-1.551l1.31-6.874L10.8,1.579,11.1.295C13.556.242,15.963-.133,18.5.268c.134.481.347.989.481,1.524l2.006,9.6c.134.7.347,1.391.588,2.327a6.34,6.34,0,0,0,1.07-2.62" fill="#535838"/>
      <path id="Path_27" data-name="Path 27" d="M40.615.321c.241,6.124-.4,12.276-.16,18.561a34.725,34.725,0,0,1-4.654.107,1.284,1.284,0,0,1-.321-1.257l.107-7.676.053-8.37V.321c3.129-.428,3.9-.428,4.975,0" fill="#535838"/>
      <path id="Path_28" data-name="Path 28" d="M52.754.295l.107,14.362a7.259,7.259,0,0,0,1.364.267l6.017-.134c1.311,0,2.621.054,4.039.107v3.8l-1.177.054-14.068.267h-1.15c-.026-.482-.107-.883-.107-1.258l.134-6.578.054-9.6V.321A12.544,12.544,0,0,1,52.754.295" fill="#535838"/>
      <path id="Path_29" data-name="Path 29" d="M73.824.134a38.549,38.549,0,0,0,4.653.08,12.1,12.1,0,0,1,3.905.669,8.548,8.548,0,0,1,5.723,8.024.716.716,0,0,0,0,.24,11.012,11.012,0,0,1-1.284,5.75,2.855,2.855,0,0,1-.508.749,8.655,8.655,0,0,1-6.285,3.182l-9.788.161c-.348,0-.722-.053-1.15-.081a6.2,6.2,0,0,1-.107-.935l.053-10.511V1.819L69.118.268A31.369,31.369,0,0,1,73.824.134m.16,14.041,1.658.213a15.56,15.56,0,0,0,4.172.108,4.187,4.187,0,0,0,3.4-2.353,6.206,6.206,0,0,0-.428-5.724,2.324,2.324,0,0,0-1.578-1.2,13,13,0,0,0-3.8-.481c-1.016.081-2.032.081-3.1.134a58.345,58.345,0,0,0-.321,9.307" fill="#535838"/>
      <path id="Path_30" data-name="Path 30" d="M7.175,64.91a4.621,4.621,0,0,0,.684-.016.481.481,0,0,1,.5.25.073.073,0,0,1,.016.083L8.26,66a3.526,3.526,0,0,1-1.135,2,4.054,4.054,0,0,1-1.885.951,4.111,4.111,0,0,1-1.686.017.522.522,0,0,0-.233-.017,2.648,2.648,0,0,1-1.835-.8,4.631,4.631,0,0,1-1.352-2.62,8.58,8.58,0,0,1,.034-3.2,4.086,4.086,0,0,1,1.685-2.853,2.4,2.4,0,0,1,1.434-.518,4.727,4.727,0,0,0,.835-.083,4.327,4.327,0,0,1,2.519.651,3.324,3.324,0,0,1,1.1,1.1,3.008,3.008,0,0,1,.55,1.952.122.122,0,0,1-.1.117,2.832,2.832,0,0,1-.985.134.379.379,0,0,1-.383-.317,3.771,3.771,0,0,0-.167-.618,2.336,2.336,0,0,0-1.4-1.234,2.664,2.664,0,0,0-1.651-.234,2.28,2.28,0,0,0-1.7,1.451,3.967,3.967,0,0,0-.3,1.636c.034.584.034,1.167.084,1.735A2.474,2.474,0,0,0,3.2,67.363a1.9,1.9,0,0,0,1.135.15,4.04,4.04,0,0,0,1.7-.717,2.4,2.4,0,0,0,.735-1.118l.266-.684a.17.17,0,0,1,.134-.084" fill="#535838"/>
      <path id="Path_31" data-name="Path 31" d="M21.69,64.693a5.562,5.562,0,0,1-1.118,2.7,3.8,3.8,0,0,1-3.37,1.652h-.034a3.167,3.167,0,0,1-2.135-.6,3.015,3.015,0,0,1-1.268-1.018,3.758,3.758,0,0,1-.8-1.484,7.518,7.518,0,0,1,.017-3.654A6.593,6.593,0,0,1,14,60.505a6.1,6.1,0,0,1,1.652-1.418c.4-.033.768-.167,1.168-.234a8.5,8.5,0,0,1,2.153.084c.484.034.784.484,1.218.684a2.216,2.216,0,0,1,.8,1.252,3.924,3.924,0,0,1,.351,1.084,4.085,4.085,0,0,1,.35,2.736m-2.069-2.369a1.4,1.4,0,0,0-.333-.667c-.1-.151-.151-.317-.3-.417a.768.768,0,0,1-.25-.218,1.455,1.455,0,0,0-.751-.45,2.228,2.228,0,0,0-2.669.951,4.645,4.645,0,0,0-.7,3.4,1.737,1.737,0,0,0,.15.718c.518.917,1.018,1.835,2.2,1.818H17a2.636,2.636,0,0,0,2.636-1.9,1.414,1.414,0,0,0,.134-.334c.033-.2-.051-.4-.017-.583a4.661,4.661,0,0,1,.1-.518,8.11,8.11,0,0,0-.234-1.8" fill="#535838"/>
      <path id="Path_32" data-name="Path 32" d="M28.532,61.407c-.017.484-.033.934-.017,1.418.017.183.151.25.317.25.617,0,1.235.034,1.836-.017H30.7c.3-.033.617,0,.934-.016.267.016.551-.017.834.016a.274.274,0,0,1,.268.167,3.785,3.785,0,0,1,.083,1.152c-.017.283-.15.5-.434.517-1.252.083-2.536-.05-3.771.067-.133.05-.167.2-.167.35-.016.517.034,1.034.067,1.568.017.584,0,1.168,0,1.752,0,.151-.033.317-.2.367a5.82,5.82,0,0,1-1.085.05c-.434.017-.65-.05-.617-.533-.033-1.019-.016-2.036,0-3.07a39.118,39.118,0,0,1,.067-4.839c.05-.384-.067-.817.15-1.151a.7.7,0,0,1,.567-.217c.4,0,.8.016,1.185-.017,1.252-.117,2.486-.083,3.737-.083.234.016.551-.051.718.15a.561.561,0,0,1,.033.334c-.066.383.2,1.034-.3,1.2a10.8,10.8,0,0,1-1.8.05c-.617,0-1.218.1-1.836.116-.35,0-.617,0-.6.418" fill="#535838"/>
      <path id="Path_33" data-name="Path 33" d="M44.866,59.121c0,.417.017.8,0,1.185-.016.3-.1.35-.4.384h-.1l-4.856.049-.5.017a.09.09,0,0,0-.084.084v.934l-.066.918a.078.078,0,0,0,.083.083l1.2.033H41.9a1.294,1.294,0,0,1,.368.034l.016.017c.117.049.251.15.251.25a3.086,3.086,0,0,1-.1,1.351.162.162,0,0,1-.083.067c-1.068.117-2.152-.016-3.237.084a.076.076,0,0,0-.083.066c-.067.684-.117,1.385-.117,2.086a17.139,17.139,0,0,1-.033,2.052.077.077,0,0,1-.084.067h-.417l-.684.033c-.334.033-.4,0-.4-.351v-3.37l-.034-4.588.034-1.318a.227.227,0,0,1,.066-.2.385.385,0,0,1,.2-.1L44.466,59c.083,0,.183.017.334.034a.076.076,0,0,1,.066.083" fill="#535838"/>
      <path id="Path_34" data-name="Path 34" d="M56.361,68.882c-1.2.033-2.418.033-3.62.083-.935-.067-1.868-.067-2.787-.1-.566-.05-.766-.334-.783-.884L49.137,65.6v-.034c.016-2.018,0-4.071-.067-6.09-.016-.467.4-.533.784-.517,1.986.05,3.988-.116,5.957.084a.42.42,0,0,1,.334.45c-.034.4.1,1-.184,1.318a4.024,4.024,0,0,1-1.419.084c-.9-.05-1.8-.017-2.7-.017-.383.033-1.235-.35-1.151.334.033.567-.084,1.117-.016,1.685.049.25.383.183.584.2l2.986-.034c.266.017.6.051.667.368.317,1.535-.049,1.168-1.3,1.234-.835.05-1.669.034-2.5.034-.318-.034-.384.234-.368.5l.05,1.5c0,.283.2.367.451.35a38.624,38.624,0,0,1,4.388.134c.317.1.5.517.685.784.167.267.534.784.049.918" fill="#535838"/>
      <path id="Path_35" data-name="Path 35" d="M62.886,61.24c0,.4-.084.934-.084,1.351,0,.234.2.317.418.3a20.21,20.21,0,0,1,2.852.083c.484.083.584.551.618.985.017.216.033.45.033.684.017.467-.517.317-.817.333a24.77,24.77,0,0,1-2.72-.05c-.233-.033-.417.067-.4.334l.016,1.6a.315.315,0,0,0,.367.35L65,67.23c.684.016,1.869-.017,2.569.016.584.034.668-.133.668.535a3.135,3.135,0,0,1-.15,1.184.051.051,0,0,1-.017.033.06.06,0,0,0-.05.017c-.334.017-1.118,0-1.452-.017-1.485-.116-2.769-.05-4.255-.066-.517.033-1.184.033-1.167-.651-.017-1,.016-2.019.066-3.02.017-1.652,0-3.3.034-4.955.05-.9-.1-1.369,1.034-1.319,1.218.034,2.453.084,3.655.084.4-.017,1.9.05,2.285.05a.286.286,0,0,1,.25.084,3.47,3.47,0,0,1-.05,1.451.777.777,0,0,1-.383.067c-1.152-.034-3.538-.034-4.689-.017-.317-.017-.484.217-.467.534" fill="#535838"/>
    </g>
  </g>
</svg>
