<svg xmlns="http://www.w3.org/2000/svg" xmlns:xlink="http://www.w3.org/1999/xlink" width="198.463" height="67.289" viewBox="0 0 198.463 67.289">
  <defs>
    <clipPath id="clip-path">
      <rect id="Rectangle_3" data-name="Rectangle 3" width="198.463" height="67.289" transform="translate(0 0)" fill="none"/>
    </clipPath>
  </defs>
  <g id="Group_6" data-name="Group 6" transform="translate(0 0)">
    <g id="Group_5" data-name="Group 5" clip-path="url(#clip-path)">
      <path id="Path_36" data-name="Path 36" d="M68.168,62.549a5.242,5.242,0,0,0,.782-.019.554.554,0,0,1,.573.286.084.084,0,0,1,.019.095l-.134.878a4.018,4.018,0,0,1-1.3,2.289,4.635,4.635,0,0,1-2.156,1.087,4.682,4.682,0,0,1-1.926.02.6.6,0,0,0-.268-.02,3.032,3.032,0,0,1-2.1-.915,5.3,5.3,0,0,1-1.545-2.995,9.827,9.827,0,0,1,.039-3.663,4.673,4.673,0,0,1,1.926-3.262,2.742,2.742,0,0,1,1.64-.591,5.424,5.424,0,0,0,.955-.095,4.942,4.942,0,0,1,2.88.744,3.78,3.78,0,0,1,1.259,1.259,3.44,3.44,0,0,1,.629,2.231.139.139,0,0,1-.114.134,3.2,3.2,0,0,1-1.126.153.434.434,0,0,1-.438-.362,4.336,4.336,0,0,0-.191-.706,2.673,2.673,0,0,0-1.6-1.412,3.041,3.041,0,0,0-1.888-.267,2.606,2.606,0,0,0-1.946,1.659,4.524,4.524,0,0,0-.343,1.87c.038.668.038,1.335.095,1.984a2.825,2.825,0,0,0,1.736,2.422,2.167,2.167,0,0,0,1.3.172,4.617,4.617,0,0,0,1.946-.82,2.744,2.744,0,0,0,.84-1.278l.3-.782a.194.194,0,0,1,.153-.1" fill="#535838"/>
      <path id="Path_37" data-name="Path 37" d="M84.764,62.3a6.364,6.364,0,0,1-1.278,3.09,4.344,4.344,0,0,1-3.854,1.888h-.038a3.624,3.624,0,0,1-2.442-.686A3.454,3.454,0,0,1,75.7,65.43a4.32,4.32,0,0,1-.916-1.7,8.619,8.619,0,0,1,.019-4.177,7.526,7.526,0,0,1,1.164-2.041,6.967,6.967,0,0,1,1.888-1.622c.458-.038.878-.191,1.336-.267a9.732,9.732,0,0,1,2.462.1c.552.038.9.553,1.392.782a2.54,2.54,0,0,1,.915,1.431,4.492,4.492,0,0,1,.4,1.24,4.67,4.67,0,0,1,.4,3.128M82.4,59.593a1.612,1.612,0,0,0-.38-.763c-.116-.172-.173-.362-.344-.477a.882.882,0,0,1-.287-.248,1.66,1.66,0,0,0-.858-.515,2.545,2.545,0,0,0-3.051,1.088,5.3,5.3,0,0,0-.8,3.891,1.982,1.982,0,0,0,.172.82c.591,1.049,1.163,2.1,2.518,2.079H79.4a3.013,3.013,0,0,0,3.014-2.174,1.606,1.606,0,0,0,.153-.382c.038-.228-.057-.457-.019-.667a5.382,5.382,0,0,1,.114-.591,9.156,9.156,0,0,0-.267-2.061" fill="#535838"/>
      <path id="Path_38" data-name="Path 38" d="M92.586,58.544c-.019.553-.038,1.068-.019,1.621.019.21.172.286.362.286.706,0,1.412.038,2.1-.019h.038c.343-.038.706,0,1.068-.019.305.019.629-.019.954.019a.31.31,0,0,1,.305.191,4.31,4.31,0,0,1,.1,1.316c-.019.324-.171.572-.5.592-1.432.1-2.9-.058-4.312.076-.153.057-.191.229-.191.4-.019.592.038,1.183.077,1.793.019.668,0,1.335,0,2,0,.172-.039.362-.229.42a6.7,6.7,0,0,1-1.24.057c-.5.019-.744-.057-.706-.61-.038-1.164-.019-2.327,0-3.51a44.847,44.847,0,0,1,.076-5.532c.057-.439-.076-.934.172-1.316a.8.8,0,0,1,.649-.248c.457,0,.915.019,1.354-.019,1.431-.134,2.842-.095,4.273-.095.267.018.63-.058.821.171a.656.656,0,0,1,.037.382c-.076.438.229,1.182-.343,1.373a12.386,12.386,0,0,1-2.06.057c-.706,0-1.393.115-2.1.133-.4,0-.705,0-.686.478" fill="#535838"/>
      <path id="Path_39" data-name="Path 39" d="M111.26,55.93c0,.477.019.915,0,1.355-.019.343-.114.4-.457.438h-.115l-5.551.057-.572.02a.1.1,0,0,0-.1.1v1.068l-.076,1.049a.09.09,0,0,0,.1.095l1.373.039h2a1.509,1.509,0,0,1,.42.038l.018.019c.134.057.287.172.287.286a3.524,3.524,0,0,1-.115,1.545.185.185,0,0,1-.1.076c-1.221.134-2.461-.018-3.7.1a.087.087,0,0,0-.1.076c-.076.782-.133,1.584-.133,2.385a19.542,19.542,0,0,1-.038,2.346.089.089,0,0,1-.1.077h-.477l-.782.038c-.382.037-.458,0-.458-.4V62.873l-.038-5.245.038-1.507a.263.263,0,0,1,.076-.229.449.449,0,0,1,.229-.115l7.9.02c.1,0,.209.018.381.038a.087.087,0,0,1,.076.1" fill="#535838"/>
      <path id="Path_40" data-name="Path 40" d="M124.4,67.09c-1.374.038-2.766.038-4.139.1-1.068-.076-2.137-.076-3.186-.114-.648-.057-.877-.382-.9-1.012l-.038-2.727v-.038c.02-2.308,0-4.655-.076-6.963-.019-.534.458-.61.9-.591,2.271.057,4.56-.134,6.81.095a.479.479,0,0,1,.382.515c-.038.458.115,1.145-.209,1.507a4.622,4.622,0,0,1-1.622.1c-1.03-.058-2.06-.02-3.09-.02-.439.039-1.412-.4-1.316.382.038.648-.1,1.278-.02,1.927.058.286.439.209.668.228l3.415-.038c.3.019.686.058.763.42.362,1.755-.057,1.335-1.489,1.412-.953.056-1.907.038-2.86.038-.363-.038-.439.267-.42.572l.057,1.717c0,.324.229.42.515.4a44.391,44.391,0,0,1,5.017.153c.362.114.572.591.782.9.191.305.61.9.057,1.049" fill="#535838"/>
      <path id="Path_41" data-name="Path 41" d="M131.862,58.353c0,.457-.1,1.068-.1,1.545,0,.267.229.362.478.344a23.142,23.142,0,0,1,3.261.1c.553.095.668.629.706,1.125.019.248.038.515.038.783.02.533-.591.362-.934.381a28.38,28.38,0,0,1-3.109-.057c-.268-.039-.477.076-.459.381l.019,1.831a.361.361,0,0,0,.42.4l2.1.019c.782.019,2.137-.019,2.938.019.668.038.763-.153.763.611a3.575,3.575,0,0,1-.172,1.354.06.06,0,0,1-.018.038.072.072,0,0,0-.058.019c-.382.019-1.278,0-1.659-.019-1.7-.133-3.167-.058-4.865-.076-.591.038-1.354.038-1.335-.744-.019-1.145.019-2.308.076-3.453.019-1.889,0-3.777.038-5.665.058-1.031-.114-1.565,1.183-1.508,1.393.039,2.8.1,4.178.1.457-.019,2.175.057,2.613.057a.329.329,0,0,1,.286.1,3.981,3.981,0,0,1-.057,1.659.885.885,0,0,1-.438.077c-1.317-.039-4.045-.039-5.361-.02-.363-.019-.553.248-.534.611" fill="#535838"/>
      <path id="Path_42" data-name="Path 42" d="M4.186,33.974c.476-.042.969-.12,1.208.136.52.619-.115,2.613-.491,3.789-.332,1.037-1.536,5.338-1.2,5.308.687-.061,2.939-2.519,4.8-4.337,1.265-1.236,4.626-4.517,5.64-4.711.054-.007.108-.012.161-.017a1.842,1.842,0,0,1,1.367.233c.942.687.7,2.828.531,4.392l-.008.08c-.832,8.082.785,8.973,1.182,8.938.9-.04,3.725-4.426,6.37-10.867.751-1.828,1.6-3.9,1.881-4.286a1.269,1.269,0,0,1,.817-.358,1.584,1.584,0,0,1,1.8,1.183c.048.269.116.521.184.77.285,1.044.51,1.871-1.342,4.12a10.514,10.514,0,0,0-1.852,2.935c-.077.158-.135.28-.172.348l-.038.05-.037.086c-2.275,5.241-4.549,8.218-6.719,8.837a4.155,4.155,0,0,1-.65.114,3.833,3.833,0,0,1-2-.4c-2.237-.979-2.412-3.219-2.794-8.127q-.056-.711-.119-1.493l-.173-2.117-1.779,1.742-.815.8c-5.254,5.146-6.1,6.186-7.482,6.35l-.78.1c-.882.119-1.538.266-1.658-1.365-.253-1.536,2.211-10.849,2.989-11.85.265-.378.667-.34,1.179-.386" fill="#535838"/>
      <path id="Path_43" data-name="Path 43" d="M130.966,6.514c.043,0,.086-.006.092-.006.358.013.9-.056,1.122.194.307.337.17,1.018-.019,1.52a8.067,8.067,0,0,0-.476,2.322,10.445,10.445,0,0,0,1.618-.184c.61-.054,1.783-.215,3.407-.437,2.828-.387,6.7-.917,10.037-1.214,4.736-.422,5.71-.114,5.852-.052h0a.833.833,0,0,1-.051,1.423c-1.161.589-9.343,1.553-13.75,2.072-7.381.87-7.842.973-8.279,1.4-.271.248-.438.62-5.072,13.01-2.881,7.7-5.84,15.5-6.35,16.324a1.318,1.318,0,0,1-.977.494c-.694.062-1.468-.245-1.549-.849.062-.294,3.748-9.079,3.252-9.218s-3.2,2.73-3.2,2.73c-1.873,1.682-3.6,3.107-4.193,3.516a7.95,7.95,0,0,1-3.728,1.547,4.372,4.372,0,0,1-.675.009,3.489,3.489,0,0,1-3.205-3.153,21.1,21.1,0,0,1,.528-3.706l.281-1.364L106,31.54c1.722-6.42,3.58-7.958,4.151-8.009.192-.017.569.132,1.063.614.391.362.423.392-1.314,4.748-2.847,7.063-1.915,7.922-1.517,8.288a1.645,1.645,0,0,0,1.266.379,2.211,2.211,0,0,0,.454-.089c1.077-.328,2.976-1.667,5.4-4,2.251-1.914,5.956-4.929,5.956-4.929l.162-.447c2.492-6.871,4.8-13.158,4.8-13.159l.049-.134s.3-.853.076-.962a5.226,5.226,0,0,0-1.482.084c-.324.029-.811.1-1.374.193s-1.222.192-1.618.227c-2.622.233-2.648-.142-2.705-.965-.062-.9-.09-1.311,4.671-1.742a15.95,15.95,0,0,0,3.939-.695c.45-.233.415-.763.577-1.416.057-.228.122-.487.232-.8C129.315,7.188,130.291,6.574,130.966,6.514ZM92.6,25.453a1.376,1.376,0,0,1,.532.082c1.277.386,1.165,1.219.117,3.884-.106.267-.213.54-.318.818,0,0-1.6,3.464-1.043,3.643s2.917-2.948,2.917-2.948c3.671-4,5.267-4.527,5.766-4.675l.356-.071c1.8-.171,2.213.273,2.812,3.1a2.875,2.875,0,0,0,1.594,1.912,4.222,4.222,0,0,1,.9.594l1.157,1.029-1.3.4c-.158.048-.45.525-.643.542a4.048,4.048,0,0,1-1.556-.132c-1.686-.407-2.25-1.361-3.086-2.461,0,0-.776-1.192-1.14-1.15-.145.016-.637.6-.829.833-.058.071-.123.142-.188.21a91.418,91.418,0,0,0-8.262,9.747c-1.368,1.827-2.357,3.148-3.03,3.208-.908.08-1.111-.1-1.178-.163-1.1-.993.808-6.03,3.447-13l.226-.6.158-.473c.455-1.371,1.4-4.224,2.589-4.33" fill="#535838"/>
      <path id="Path_44" data-name="Path 44" d="M149.379,19.309c1.069-.095,1.61.453,1.671,1.016-.242,1.32-6.447,15.736-7.6,17.685-.3.475-1.655.184-2.03-.115-.691-.642.108-2.569.45-3.392.066-.16.124-.3.169-.417,0,0,2.08-3.7,1.771-3.774s-3.579,3.023-3.579,3.023l-.5.375c-3.988,3.013-5.989,4.525-8.713,4.768-.2.018-.408.029-.612.034-2.513.047-3.766-.857-4.059-2.926-.306-2.3.749-5.49,1.759-8.295,1.451-3.882,1.882-3.92,2.742-4a2.029,2.029,0,0,1,1.23.125c.514.457-.173,2.384-.779,4.084a22.432,22.432,0,0,0-1.688,7.394,1.168,1.168,0,0,0,.9,1.031,2.005,2.005,0,0,0,1.591-.148c5.14-2.961,9.3-7.563,12.023-10.831l.437-.524c3.984-4.779,4.254-5.066,4.815-5.116" fill="#535838"/>
      <path id="Path_45" data-name="Path 45" d="M170.386,11.878c.856-.076,1.375.172,1.546.751A1.3,1.3,0,0,1,171.6,13.9a2.412,2.412,0,0,1-1.586.644,1.216,1.216,0,0,1-.9-.148,1,1,0,0,1-.325-.936,1.87,1.87,0,0,1,1.6-1.583" fill="#535838"/>
      <path id="Path_46" data-name="Path 46" d="M163.145,12.522c.856-.076,1.375.173,1.546.75a1.306,1.306,0,0,1-.339,1.274,2.411,2.411,0,0,1-1.584.643,1.22,1.22,0,0,1-.9-.148,1,1,0,0,1-.325-.936,1.871,1.871,0,0,1,1.6-1.583" fill="#535838"/>
      <path id="Path_47" data-name="Path 47" d="M112,17.074c.856-.076,1.375.173,1.546.75A1.306,1.306,0,0,1,113.2,19.1a2.411,2.411,0,0,1-1.584.643,1.22,1.22,0,0,1-.9-.148,1,1,0,0,1-.325-.936,1.871,1.871,0,0,1,1.6-1.583" fill="#535838"/>
      <path id="Path_48" data-name="Path 48" d="M197.578.273a1.692,1.692,0,0,0-1.086-.265,2.379,2.379,0,0,0-.427.08c-4.567,1.219-11.805,12.965-15.9,23.15l-.11.272s-3.62,3.381-5.823,5.415c-3.39,3.128-4.685,4.176-5.621,4.259a1.117,1.117,0,0,1-1.33-.9c-.094-1.35.8-3.506,1.831-6,1.308-3.16,3.1-7.488,1.776-8.716-.115-.107-.464-.431-1.707-.321a2.884,2.884,0,0,0-1.766.516,3.1,3.1,0,0,1-1.72.654,11,11,0,0,1-2.611-.191,9.368,9.368,0,0,0-1.943-.188,4.765,4.765,0,0,0-1.692.5c-4.293,1.877-9.2,8.5-8.985,12.733.02.289.7,2.466,2.675,2.29,1.215-.108,4.137-.863,8.97-6.494.326-.391.62-.746.876-1.055a14.7,14.7,0,0,1,3.239-3.035.425.425,0,0,1,.518.086c.3.487-.355,1.6-1.111,3.642l-.341.926c-1.94,5.142-.88,7.127-.076,7.853a3.6,3.6,0,0,0,2.738.72,6.3,6.3,0,0,0,1.182-.223,4.336,4.336,0,0,0,1.351-.67c1.084-.793,2.984-2.452,5.333-4.572l2.207-1.992-.045.393c-.669,1.746-2.9,7.254-3.1,7.789-.4,1.033-.621,1.628-.725,2.014a6.515,6.515,0,0,0-.3.918c-.1.839.158,1.107,1.218,1.249.8.106.878.087,1.288-.532,1.793-2.518,3.188-5.609,2.458-5.706a.1.1,0,0,1-.044-.016c.736-1.658,1.626-3.742,2.664-6.307l.026-.062c.7-1.668,1.252-2.656,1.884-4.226a4.282,4.282,0,0,1,.362-.353c3.245-2.772,15.058-16.257,14.744-21.921a2,2,0,0,0-.879-1.718m-40.714,28a2.161,2.161,0,0,1-1.408.894c-.633.057-1.155-.278-1.189-.762-.092-1.338,1.4-3.3,2.675-4.714,1.238-1.376,2.934-3.035,3.977-3.129a1.233,1.233,0,0,1,1.1.406c.36.481.672.9-5.158,7.305M190.7,12.146c-1.732,2.33-5.685,7.776-6.257,7.756-.285-.011,1.885-4.141,4.569-8.162s5.9-7.958,6.29-8.006c.46-.056-2.87,6.082-4.6,8.412" fill="#535838"/>
      <path id="Path_49" data-name="Path 49" d="M35.886,23.848c.856-.076,1.375.173,1.546.75a1.306,1.306,0,0,1-.339,1.274,2.411,2.411,0,0,1-1.584.643,1.218,1.218,0,0,1-.9-.148,1,1,0,0,1-.325-.936,1.871,1.871,0,0,1,1.6-1.583" fill="#535838"/>
      <path id="Path_50" data-name="Path 50" d="M86.924,10.112c-.914-.462-1.32-.4-1.921.289a7.288,7.288,0,0,0-.513.852c-.231.347-.538.918-1.066,1.909-.064.119-.223.417-.455.846-.575,1-8.078,14.447-8.4,14.773a2.9,2.9,0,0,1-1.141-.384,5.321,5.321,0,0,0-3.851-.6,9.908,9.908,0,0,0-1.194.274c-2.452.8-5.556,3.458-7.535,6.47l-.071.108-.1.09c-.973.832-2.293,2.134-3.69,3.512-4.42,4.36-7.731,7.486-10.082,7.994a3.858,3.858,0,0,1-.47.072,2.108,2.108,0,0,1-2.479-2.249c-.146-2.107.945-6.351,2.92-7.948C50.117,33.347,61.929,19.862,61.615,14.2a2,2,0,0,0-.879-1.717,1.685,1.685,0,0,0-1.086-.266,2.315,2.315,0,0,0-.427.081c-3.583.956-10.689,10.124-15.95,23.273l-.1.259s-3.226,3.02-4.839,4.587c-2.232,2.168-3.8,3.2-4.881,3.53a2.365,2.365,0,0,1-.479.1,1.607,1.607,0,0,1-1.233-.362c-.612-.565-.876-1.51,1.721-7.954,1.738-4.356,1.706-4.386,1.315-4.749a1.693,1.693,0,0,0-1.083-.608c-.686.061-2.3,1.506-4,6.537A34.569,34.569,0,0,0,27.87,44.9a3.276,3.276,0,0,0,3,3.114A4.384,4.384,0,0,0,31.551,48a7.953,7.953,0,0,0,3.727-1.548c.5-.342,1.945-1.522,3.66-3.04L40.983,41.6l-.129,2.308a4.405,4.405,0,0,0,0,.549c.2,2.97,3.259,4.136,4.42,4.335a2.815,2.815,0,0,0,.833.037,6.973,6.973,0,0,0,1.227-.242c2.747-.814,6.6-3.595,10.545-7.624l1.056-1.078L59.722,41a4.29,4.29,0,0,0,3.78,1.445,9.777,9.777,0,0,0,5.055-2.255l1.786-1.523s1.594-1.436,1.85-1.4c.107.014.193.076.128.3a19.577,19.577,0,0,1-.688,1.941c-.418,1.027-.753,2.162-.867,2.546a6.765,6.765,0,0,0-.314.915c-.113.837.135,1.109,1.191,1.268.8.119.875.1,1.3-.512,1.61-2.257,3.476-8.036,3.638-8.425.542-1.2,1.135-2.54,1.791-4.075.01-.021.017-.039.027-.06.649-1.477,3.535-8.008,5.043-11.422,1.6-2.907,3.574-6.57,4.031-8.537.189-.688.144-.744-.545-1.093M51.75,23.984c2.692-4.034,5.9-7.959,6.29-8.006.46-.056-2.87,6.082-4.6,8.412s-5.685,7.776-6.257,7.755c-.285-.01,1.885-4.14,4.569-8.161M66.926,37.666c-1.752,1.679-2.533,1.957-3.118,2.009a1.461,1.461,0,0,1-1.19-.379c-.435-.456-.466-1.207.789-3.391,1.618-2.845,4.595-5.395,6.5-5.565a1.57,1.57,0,0,1,1.47.542c.276.4,1.01,1.452-4.45,6.784" fill="#535838"/>
    </g>
  </g>
</svg>
