<svg xmlns="http://www.w3.org/2000/svg" xmlns:xlink="http://www.w3.org/1999/xlink" width="210.071" height="43.662" viewBox="0 0 210.071 43.662">
  <defs>
    <clipPath id="clip-path">
      <rect id="Rectangle_6" data-name="Rectangle 6" width="210.071" height="43.662" transform="translate(0 0)" fill="none"/>
    </clipPath>
  </defs>
  <g id="Group_12" data-name="Group 12" transform="translate(0 0)">
    <g id="Group_11" data-name="Group 11" clip-path="url(#clip-path)">
      <path id="Path_81" data-name="Path 81" d="M20.813,15.928c.32-2.065.762-4.129,1.131-6.218l.54-3.269c.025-.123.1-.245.123-.369a13.735,13.735,0,0,1,4.621.124l-.369,1.892L25.384,15.51l-.909,4.473a3.845,3.845,0,0,0-.123.909,5.774,5.774,0,0,1-.589,2.163,37.229,37.229,0,0,1-7.423-.049c-1.057-3.343-1.5-6.833-2.752-10.175-.221.885-.516,1.745-.689,2.654-.392,2.016-.712,4.08-1.105,6.12a13.161,13.161,0,0,1-.443,1.573c-2.482.049-4.89.024-7.4.024-.418-1.671-.861-3.244-1.254-4.866L.439,8.875c-.172-.762-.3-1.5-.417-2.262-.074-.541.024-.663.589-.688,1.3-.024,2.581,0,3.933,0a4.129,4.129,0,0,1,.319.86L6.485,14.06,7.2,17.624a1.861,1.861,0,0,0,.221.466,2.786,2.786,0,0,0,.836-1.425l1.2-6.316.467-3.171L10.2,6A37.014,37.014,0,0,1,17,5.974c.123.443.32.909.442,1.4L19.289,16.2c.124.639.32,1.278.541,2.138a5.824,5.824,0,0,0,.983-2.408" fill="#535838"/>
      <path id="Path_82" data-name="Path 82" d="M36.832,6.023c.221,5.628-.368,11.281-.148,17.057a31.846,31.846,0,0,1-4.276.1,1.182,1.182,0,0,1-.3-1.155l.1-7.054.049-7.692V6.023c2.875-.393,3.588-.393,4.571,0" fill="#535838"/>
      <path id="Path_83" data-name="Path 83" d="M47.5,6l.1,13.2a6.624,6.624,0,0,0,1.253.245l5.53-.123c1.2,0,2.409.049,3.711.1v3.491l-1.081.049L44.08,23.2H43.024c-.025-.443-.1-.811-.1-1.156L43.048,16l.05-8.823V6.022A11.53,11.53,0,0,1,47.5,6" fill="#535838"/>
      <path id="Path_84" data-name="Path 84" d="M66.368,5.851a35.41,35.41,0,0,0,4.277.074,11.127,11.127,0,0,1,3.588.615,7.852,7.852,0,0,1,5.259,7.373.683.683,0,0,0,0,.221,10.106,10.106,0,0,1-1.18,5.284,2.626,2.626,0,0,1-.466.688,7.959,7.959,0,0,1-5.776,2.925l-8.995.147c-.32,0-.663-.049-1.057-.074a5.785,5.785,0,0,1-.1-.86l.049-9.658V7.4l.074-1.426a29.031,29.031,0,0,1,4.325-.123m.148,12.9,1.524.2a14.274,14.274,0,0,0,3.833.1A3.848,3.848,0,0,0,75,16.887a5.707,5.707,0,0,0-.394-5.26,2.134,2.134,0,0,0-1.45-1.106,11.962,11.962,0,0,0-3.489-.443c-.934.075-1.868.075-2.852.124a53.558,53.558,0,0,0-.294,8.552" fill="#535838"/>
      <path id="Path_85" data-name="Path 85" d="M113.747,23.128a14.406,14.406,0,0,1-2.925-.024,6.867,6.867,0,0,0-1.229-.025.728.728,0,0,1-.909-.491l-2.114-4.744a4.089,4.089,0,0,1-.27-.565.983.983,0,0,0-.983-.762c-.688-.024-1.376-.148-2.065-.148-.762,0-1.524.1-2.285.148a1.868,1.868,0,0,0-.442,1.45v4.154c0,.319-.049.614-.074.884a15.747,15.747,0,0,1-4.252.123,6.427,6.427,0,0,1-.074-.688L96.2,11.847l-.025-4.153V6.957c0-.91.074-.959,1.032-1.033l.713-.024c2.016-.049,4.031-.148,6.046-.123a38.838,38.838,0,0,1,5.6.369,4.965,4.965,0,0,1,4.252,3.932,4.879,4.879,0,0,1-2.041,5.21c-.442.344-.983.541-1.253,1.131.885,2.261,2.212,4.326,3.22,6.709m-12.9-12.19.148,1.4c2.162,0,4.251.024,6.315-.025a4.992,4.992,0,0,0,1.622-.294,1,1,0,0,0,.492-1.721,2.105,2.105,0,0,0-1.695-.86,19.785,19.785,0,0,1-2.409-.074,16.276,16.276,0,0,0-4.6.2Z" fill="#535838"/>
      <path id="Path_86" data-name="Path 86" d="M123.942,6.023c.221,5.628-.368,11.281-.148,17.057a31.846,31.846,0,0,1-4.276.1,1.182,1.182,0,0,1-.295-1.155l.1-7.054.049-7.692V6.023c2.875-.393,3.588-.393,4.571,0" fill="#535838"/>
      <path id="Path_87" data-name="Path 87" d="M147.386,9.439l-5.849.049c-1.3.024-1.376.1-1.376,1.351V23.128a13.684,13.684,0,0,1-4.473-.2l-.049-1.254-.074-9.683c0-.786-.1-1.573-.172-2.433-2.482-.172-4.916,0-7.324-.1a9.5,9.5,0,0,1,0-3.539,8.4,8.4,0,0,1,1.155-.147c1.844.024,3.687.1,5.53.1h10c.737,0,1.474-.075,2.187-.075.442,0,.885.05,1.376.1V9.39c-.319,0-.614.049-.934.049" fill="#535838"/>
      <path id="Path_88" data-name="Path 88" d="M168.3,6.048a2.817,2.817,0,0,1,.1.492c.05,1.965.148,3.957.1,5.922-.025,1.967-.2,3.933-.32,5.9a4.614,4.614,0,0,1-3.244,4.178,9.324,9.324,0,0,1-3.367.639c-1.475,0-2.974-.074-4.473-.2a6.243,6.243,0,0,1-3.637-1.892,1.979,1.979,0,0,1-.541-.861,9.548,9.548,0,0,1-.86-3.711c.049-3.047.025-6.094.049-9.142,0-.443.074-.884.1-1.3a15.847,15.847,0,0,1,4.5-.1c.024.246.1.517.1.762-.025,1.647-.1,3.269-.1,4.891.024,1.695.049,3.392.172,5.087a4.067,4.067,0,0,0,.639,1.721,2.067,2.067,0,0,0,1.057.761,6.36,6.36,0,0,0,3.711-.049,1.413,1.413,0,0,0,1.106-1.253,25.733,25.733,0,0,0,.369-3.072c.049-2.532.024-5.063.049-7.594V5.974a15.326,15.326,0,0,1,4.5.074" fill="#535838"/>
      <path id="Path_89" data-name="Path 89" d="M186.973,10.028l2.088,7.915,1.106,4.424.075.541a13.717,13.717,0,0,1-3.859.245c-.418-.024-.59-.344-.688-.712l-.64-2.827-.171-.54c-2.065-.467-4.154,0-6.316-.32l-1.426,4.4c-1.253,0-2.482.025-3.686,0-.541,0-.713-.27-.64-.811a6.214,6.214,0,0,1,.148-.712L176.749,9c.3-.909.663-1.818.983-2.728a.712.712,0,0,1,.737-.589h7.471L186.7,8.7c.123.444.148.886.271,1.327m-5.309-7.814a1.942,1.942,0,0,1-2.138,2.211l-.688-.121a2.23,2.23,0,0,1-1.475-3.146c.221-.59.516-.959,1.131-.959.368-.049.712-.172,1.081-.2a2,2,0,0,1,2.089,2.212m2.163,11.379a15.971,15.971,0,0,0-1.253-4.375,1.068,1.068,0,0,0-.787-.517c-.221-.023-.492.32-.688.542-.1.074-.123.246-.172.368-.27.935-.59,1.844-.836,2.778-.172.687-.27,1.4-.442,2.187,1.425.1,2.728.049,4.1.025a7.938,7.938,0,0,0,.074-1.008m3-11.379a1.942,1.942,0,0,1-2.138,2.211L184,4.3a2.228,2.228,0,0,1-1.474-3.146c.221-.59.516-.959,1.13-.959.368-.049.713-.172,1.081-.2a2,2,0,0,1,2.089,2.212" fill="#535838"/>
      <path id="Path_90" data-name="Path 90" d="M199.479,6l.1,13.2a6.624,6.624,0,0,0,1.253.245l5.53-.123c1.2,0,2.409.049,3.711.1v3.491l-1.081.049-12.928.246h-1.056c-.025-.443-.1-.811-.1-1.156L195.03,16l.05-8.823V6.022a11.53,11.53,0,0,1,4.4-.023" fill="#535838"/>
      <path id="Path_91" data-name="Path 91" d="M77.944,39.516a4.622,4.622,0,0,0,.684-.016.481.481,0,0,1,.5.25.073.073,0,0,1,.016.083l-.116.768a3.526,3.526,0,0,1-1.135,2,4.054,4.054,0,0,1-1.885.951,4.111,4.111,0,0,1-1.686.017.522.522,0,0,0-.233-.017,2.648,2.648,0,0,1-1.835-.8,4.631,4.631,0,0,1-1.352-2.62,8.58,8.58,0,0,1,.034-3.2,4.086,4.086,0,0,1,1.685-2.853,2.4,2.4,0,0,1,1.434-.518,4.727,4.727,0,0,0,.835-.083,4.327,4.327,0,0,1,2.519.651,3.324,3.324,0,0,1,1.1,1.1,3.008,3.008,0,0,1,.55,1.952.122.122,0,0,1-.1.117,2.832,2.832,0,0,1-.985.134.379.379,0,0,1-.383-.317,3.771,3.771,0,0,0-.167-.618,2.336,2.336,0,0,0-1.4-1.234,2.664,2.664,0,0,0-1.651-.234,2.28,2.28,0,0,0-1.7,1.451,3.967,3.967,0,0,0-.3,1.636c.034.584.034,1.167.084,1.735a2.474,2.474,0,0,0,1.518,2.119,1.9,1.9,0,0,0,1.135.15,4.04,4.04,0,0,0,1.7-.717,2.4,2.4,0,0,0,.735-1.118l.266-.684a.17.17,0,0,1,.134-.084" fill="#535838"/>
      <path id="Path_92" data-name="Path 92" d="M92.46,39.3A5.562,5.562,0,0,1,91.342,42a3.8,3.8,0,0,1-3.37,1.652h-.034a3.167,3.167,0,0,1-2.135-.6,3.015,3.015,0,0,1-1.268-1.018,3.758,3.758,0,0,1-.8-1.484,7.518,7.518,0,0,1,.017-3.654,6.593,6.593,0,0,1,1.017-1.786,6.1,6.1,0,0,1,1.652-1.418c.4-.033.768-.167,1.168-.234a8.5,8.5,0,0,1,2.153.084c.484.034.784.484,1.218.684a2.216,2.216,0,0,1,.8,1.252,3.924,3.924,0,0,1,.351,1.084,4.085,4.085,0,0,1,.35,2.736M90.391,36.93a1.4,1.4,0,0,0-.333-.667c-.1-.151-.151-.317-.3-.417a.768.768,0,0,1-.25-.218,1.455,1.455,0,0,0-.751-.45,2.228,2.228,0,0,0-2.669.951,4.645,4.645,0,0,0-.7,3.4,1.737,1.737,0,0,0,.15.718c.518.917,1.018,1.835,2.2,1.818h.034a2.636,2.636,0,0,0,2.636-1.9,1.414,1.414,0,0,0,.134-.334c.033-.2-.051-.4-.017-.583a4.661,4.661,0,0,1,.1-.518,8.11,8.11,0,0,0-.234-1.8" fill="#535838"/>
      <path id="Path_93" data-name="Path 93" d="M99.3,36.013c-.017.484-.033.934-.017,1.418.017.183.151.25.317.25.617,0,1.235.034,1.836-.017h.033c.3-.033.617,0,.934-.016.267.016.551-.017.834.016a.274.274,0,0,1,.268.167,3.785,3.785,0,0,1,.083,1.152c-.017.283-.15.5-.434.517-1.252.083-2.536-.05-3.771.067-.133.05-.167.2-.167.35-.016.517.034,1.034.067,1.568.017.584,0,1.168,0,1.752,0,.151-.033.317-.2.367a5.82,5.82,0,0,1-1.085.05c-.434.017-.65-.05-.617-.533-.033-1.019-.016-2.036,0-3.07a39.119,39.119,0,0,1,.067-4.839c.05-.384-.067-.817.15-1.151a.7.7,0,0,1,.567-.217c.4,0,.8.016,1.185-.017,1.252-.117,2.486-.083,3.737-.083.234.016.551-.051.718.15a.561.561,0,0,1,.033.334c-.066.383.2,1.034-.3,1.2a10.8,10.8,0,0,1-1.8.05c-.617,0-1.218.1-1.836.116-.35,0-.617,0-.6.418" fill="#535838"/>
      <path id="Path_94" data-name="Path 94" d="M115.635,33.727c0,.417.017.8,0,1.185-.016.3-.1.35-.4.384h-.1l-4.856.049-.5.017a.09.09,0,0,0-.084.084v.934l-.066.918a.078.078,0,0,0,.083.083l1.2.033h1.752a1.294,1.294,0,0,1,.368.034l.016.017c.117.049.251.15.251.25a3.086,3.086,0,0,1-.1,1.351.162.162,0,0,1-.083.067c-1.068.117-2.152-.016-3.237.084a.076.076,0,0,0-.083.066c-.067.684-.117,1.385-.117,2.086a17.14,17.14,0,0,1-.033,2.052.077.077,0,0,1-.084.067h-.417l-.684.033c-.334.033-.4,0-.4-.351V39.8l-.034-4.588.034-1.318a.227.227,0,0,1,.066-.2.385.385,0,0,1,.2-.1l6.908.017c.083,0,.183.017.334.034a.076.076,0,0,1,.066.083" fill="#535838"/>
      <path id="Path_95" data-name="Path 95" d="M127.131,43.488c-1.2.033-2.419.033-3.621.083-.934-.067-1.868-.067-2.786-.1-.567-.05-.767-.334-.784-.884l-.034-2.386v-.034c.017-2.018,0-4.071-.066-6.09-.017-.467.4-.533.784-.517,1.986.05,3.988-.116,5.956.084a.419.419,0,0,1,.334.45c-.033.4.1,1-.183,1.318a4.024,4.024,0,0,1-1.419.084c-.9-.05-1.8-.017-2.7-.017-.384.033-1.235-.35-1.151.334.033.567-.084,1.117-.017,1.685.05.25.383.183.584.2l2.986-.034c.267.017.6.051.668.368.316,1.535-.05,1.168-1.3,1.234-.834.05-1.668.034-2.5.034-.318-.034-.384.234-.368.5l.05,1.5c0,.283.2.367.451.35a38.63,38.63,0,0,1,4.388.134c.317.1.5.517.684.784.167.267.534.784.05.918" fill="#535838"/>
      <path id="Path_96" data-name="Path 96" d="M133.655,35.846c0,.4-.084.934-.084,1.351,0,.234.2.317.418.3a20.209,20.209,0,0,1,2.852.083c.484.083.584.551.618.985.017.216.033.45.033.684.017.467-.517.317-.817.333a24.77,24.77,0,0,1-2.72-.05c-.233-.033-.417.067-.4.334l.016,1.6a.315.315,0,0,0,.367.35l1.836.017c.684.016,1.869-.017,2.569.016.584.034.668-.133.668.535a3.135,3.135,0,0,1-.15,1.184.051.051,0,0,1-.017.033.06.06,0,0,0-.05.017c-.334.017-1.118,0-1.452-.017-1.485-.116-2.769-.05-4.255-.066-.517.033-1.184.033-1.167-.651-.017-1,.016-2.019.066-3.02.017-1.652,0-3.3.034-4.955.05-.9-.1-1.369,1.034-1.319,1.218.034,2.453.084,3.655.084.4-.017,1.9.05,2.285.05a.286.286,0,0,1,.25.084,3.47,3.47,0,0,1-.05,1.451.777.777,0,0,1-.383.067c-1.152-.034-3.538-.034-4.689-.017-.317-.017-.484.217-.467.534" fill="#535838"/>
    </g>
  </g>
</svg>
